<svg xmlns="http://www.w3.org/2000/svg" width="359" height="187" viewBox="0 0 359 187"><style>.a{fill:#FFF;}.b{fill:#FFCB05;}</style><g opacity="0.8"><path d="M358 180c0 2.2-1.8 4-4 4H7c-2.2 0-4-1.8-4-4V5c0-2.2 1.8-4 4-4h347c2.2 0 4 1.8 4 4V180z"/></g><path d="M83.1 37.8l-0.2 0.4c-0.2 0.2-0.7 0.2-1.5 0.2l-0.3-0.3c0.3-0.5 0.4-0.8 0.4-0.9 -0.5-1.4-1.1-2.6-1.9-3.6 -0.9-1.2-2.2-2-3.8-2.2 -0.2-0.1-0.5-0.3-0.9-0.4 -0.4-0.1-1-0.1-1.8 0 -0.9 0.1-1.5 0.2-1.8 0.1 -0.1 0-0.4 0-0.8 0.2 -0.4 0.2-0.8 0.2-0.9 0.2 -0.5 0.1-1.3 0.2-2.4 0.4 -0.6 0-1.5 0-2.7 0.1 -0.2 0-0.5 0.2-0.9 0.6s-0.6 0.7-0.6 0.9c0 0.4 0.1 1.1 0.1 1.9 -0.2 0.7-0.5 1.7-0.8 3 -0.1 1.1 0 2.4 0.3 3.7 0.1 0.8 0.2 2 0.3 3.5l-0.1 6.2c0.2 0.7 0.4 1.2 0.4 1.4 0 0.4-0.1 0.7-0.4 1.1 -0.3 0.5-0.4 0.7-0.5 0.8 0.1 0.2 0.4 0.3 0.8 0.5 0.1 0.2 0.2 0.4 0.1 0.6 0 0.1-0.3 0.4-0.8 1 0.2 0.3 0.4 0.8 0.6 1.5 0.1 1 0 1.7-0.3 2.3 -0.3 0.7-0.4 1.4-0.4 2.1 0 0.4 0.1 1 0.2 1.8 0.2 0.8 0.2 1.4 0.2 1.8 0 0.6-0.1 1.1-0.4 1.7 -0.1 0.3-0.1 0.4-0.1 0.6 0.2 0.2 0.4 0.3 0.6 0.4 0.2 0.2 0.2 0.4 0.2 0.7 -0.2 0.8-0.4 2-0.7 3.6 0 0 0.1 2 0.4 5.8 0 0.7 0 1.7 0 3 0.1 1 0.5 2.1 1.1 3.3 0.2 0.1 0.5 0.3 0.8 0.6 0.3 0.5 0.8 1.3 1.5 2.2 0.4 0.4 0.9 0.6 1.4 0.7 0.6 0.1 1.6 0.2 2.9 0.3 0.2 0.2 0.2 0.5 0.1 0.8h-8.1c-0.1 0-0.6-0.1-1.4-0.2 -0.8-0.1-1.3-0.2-1.4-0.2h-5.3c0 0-0.4 0.1-1.2 0.2 -0.8 0.2-1.3 0.2-1.7 0.2 -2.7 0-4.3 0-4.8-0.1 -0.1-0.1-0.1-0.2-0.1-0.3 0-0.5 0.6-0.8 1.8-1 0.5 0 1.3-0.3 2.4-0.7 1.4-1.1 2.3-2.3 2.8-3.6 0.3-0.7 0.4-1.6 0.5-2.5 0.1-1.5 0.1-2.2 0.1-2.3 0.1-0.4 0.3-0.9 0.5-1.6 -0.1-0.3-0.1-0.7-0.1-1.2 0.4-0.8 0.5-1.7 0.5-2.7 0-1-0.1-1.8-0.4-2.4 -0.1-0.2-0.1-0.7-0.1-1.5 0.1-1.2 0.2-3.2 0.4-5.8 0-0.1 0.1-0.4 0.2-0.9 0.1-0.4 0.1-0.8 0.1-1.2 -0.1-0.1-0.2-0.3-0.3-0.5 0-0.1 0-0.2 0.1-0.4 0.1-0.2 0.2-0.3 0.2-0.4 0-3.1 0-4.5-0.1-4.3 0.1-1 0.2-1.5 0.2-1.6 -0.1-0.1-0.2-0.3-0.3-0.6 0-0.5 0-1.3 0-2.4 -0.1-1 0-1.9 0.1-2.8 0.1-0.6 0.3-1 0.5-1.1 0.2-0.2 0.5-0.2 0.9-0.2 0.3 0 0.7 0.1 1.2 0.3s1 0.3 1.3 0.3c0.5 0 0.9-0.2 1.2-0.5 -0.1-0.3-0.5-0.6-1.2-0.7 -0.5-0.1-1.1-0.2-1.6-0.3 -0.1-0.1-0.3-0.3-0.6-0.5 -0.4 0-1-0.2-1.8-0.7 0-0.4 0.1-1.5 0.1-3.3 0-0.1 0-0.4-0.1-0.9 -0.1-0.5-0.1-0.9-0.1-1.1 0-0.3 0-0.8 0.1-1.6 0-0.7 0-1.2 0-1.6 0-0.2-0.1-0.4-0.3-0.4 -0.3-0.1-0.5-0.2-0.6-0.3 0 0 0-0.1 0-0.1 0-0.1 0.1-0.3 0.3-0.5 0.2-0.2 0.3-0.4 0.4-0.5 0.2-0.5 0.2-1.5 0.1-3 -0.3-0.3-0.7-0.4-1.1-0.4 -0.1 0-0.3 0-0.5 0 -0.2 0-0.4 0-0.5 0 -0.6 0-1.2-0.3-1.5-0.9 -0.4 0.4-1.1 0.8-2.1 1.3 -0.2 0-0.4 0.1-0.7 0.1 -0.4 0-1-0.1-1.7-0.2 -0.7-0.2-1.3-0.2-1.6-0.2 -0.6 0-1.1 0.1-1.5 0.4 -0.1 0.1-0.9 0.2-2.3 0.6 -0.2 0-0.5 0.3-1.1 0.9 -0.8 1-2.1 2.5-3.9 4.7 -0.1 0.1-0.3 0.6-0.6 1.6 -0.3 0.8-0.6 1.2-1 1.2 -0.2 0-0.5-0.1-0.7-0.3 0-0.2 0.1-0.6 0.3-1.2 0.3-0.7 0.4-1 0.4-1.1 0.2-1.2 0.5-2.9 1-5.3 0 0 0.1-1 0.2-2.9 0.1-1.2 0.4-2.1 0.9-2.7 1.5-0.3 2.6-0.4 3.3-0.3 0.3 0.1 0.7 0.3 1.2 0.5 0.1 0 0.3 0 0.6-0.1s0.5-0.2 0.6-0.2c0.3 0 0.7 0 1.3 0 0.3-0.1 0.7-0.2 1.3-0.4 0.4-0.1 1-0.1 1.7 0.1 0.9 0.2 1.5 0.3 1.8 0.3 0.1 0 0.3-0.1 0.7-0.2 0.3-0.1 0.6-0.2 0.7-0.2h4.6c0.1 0 0.2 0 0.6-0.1s0.5-0.1 0.7 0c0.3 0.1 0.7 0.3 1.2 0.4 3.6 0.2 6 0.2 7 0.1 -0.1 0 0.3 0.1 1.2 0.2 0.2 0 1 0 2.4-0.2 0.3 0 0.6 0 1.1 0 0.1 0 0.2-0.1 0.4-0.2s0.4-0.2 0.5-0.2c1.6 0 3.4 0 5.2-0.1 0.4 0 1.2 0 2.5 0.1 0.1 0 0.3 0.1 0.7 0.2 0.3 0.1 0.6 0.2 0.8 0.2 0.3 0 1.5-0.2 3.4-0.6 0.4 0.3 0.6 0.8 0.6 1.5 -0.1 0.6-0.1 1.2-0.2 1.8 0 0.3 0 0.8 0 1.6 0 0.8 0.1 1.2 0.1 1.2v2.6c0 0 0 0.3 0.1 0.8C83.1 37 83.1 37.4 83.1 37.8z" class="a"/><path d="M113.3 61.9c0 1.1 0 2-0.1 2.5 -0.2 0.4-0.4 1.1-0.6 2.1 0 0.9-0.2 1.9-0.6 3 -0.3 0.4-0.8 1-1.4 1.9 -0.2 0.6-0.6 1.4-1.3 2.5 -0.6 0.6-1.4 1.4-2.6 2.6 -0.2 0.1-0.4 0.2-0.7 0.3 -0.3 0.2-0.7 0.6-1.3 1 -3.2 1.7-6.2 2.7-9.1 2.9h-3.9c0 0 0-0.1-0.2-0.2 -2.1-0.1-3.7-0.4-4.7-0.9 -0.3-0.1-0.6-0.2-1.1-0.3 -0.8-0.3-2-0.9-3.5-1.7 -1.9-1.2-3.6-2.9-5.3-5 -0.9-1.2-1.7-2.8-2.4-4.7 -0.7-1.8-1-3.3-1.1-4.5 -0.1-2.1-0.1-4.1 0.2-6.1 0.1-0.3 0.3-0.6 0.5-1.1 0.1-0.6 0.3-1.4 0.6-2.5 0.4-0.7 1-1.7 1.7-3 0.1-0.2 0.1-0.5 0.1-0.8 0.1-0.1 0.3-0.1 0.6 0.1 0.1-0.3 0.1-0.7 0-1.2 0.3-0.1 0.6-0.2 1.1-0.5 0.2-0.4 0.5-0.9 1.1-1.5 1.2-0.6 2.9-1.5 5.3-2.8 0.6-0.3 1.4-0.5 2.3-0.8 2.4-0.5 4-0.8 4.9-0.8h2.3c1.8 0 3.3 0.2 4.6 0.5 0.7 0.2 2.2 0.7 4.5 1.6 0.5 0.3 1.3 0.8 2.3 1.5 1.5 1 2.9 2.3 4.2 4 1.1 1.5 1.8 2.9 2.2 4.2 0.2 0.2 0.4 0.5 0.6 1 0.4 1.2 0.7 2.9 0.7 5.2 0 0.1 0 0.3 0.1 0.5S113.3 61.7 113.3 61.9zM106.8 62.7c-0.2-2.5-0.7-4.7-1.4-6.7 -1-2.6-2.2-4.7-3.5-6.2 -1.9-2.1-4-3.3-6.3-3.7 -2.1-0.4-3.6-0.5-4.4-0.4 -1.6 0.2-2.9 0.5-4 1 -0.1 0.1-1 0.6-2.7 1.6 -0.1 0.2-0.3 0.4-0.5 0.7 -0.2 0-0.3 0.1-0.5 0.2 -0.4 0.5-0.9 1.2-1.5 2.1 -0.1 0.2-0.2 0.6-0.4 1 -0.3 0.5-0.6 1-0.9 1.7 -0.2 0.7-0.4 1.8-0.8 3.3 0 0.5 0 1.4 0 2.5 0 0.1 0 0.2-0.1 0.4 -0.1 0.2-0.1 0.3-0.1 0.4 0.3 1.3 0.7 3 1.2 5.3 -0.1 0.2-0.1 0.3-0.1 0.6 0.1 0.3 0.3 0.6 0.6 1.1 0 0.3 0.1 0.6 0.2 1 0.8 1.6 1.3 2.5 1.3 2.5 0.6 1 1.4 2 2.4 2.9 0 0 0.1 0.4 0.4 1.2 0.1 0 0.4 0.1 1 0.2 1 0.9 1.7 1.5 2.2 1.8 1.4 0.9 4.1 1.1 7.9 0.8 0.3-0.1 0.7-0.2 1.2-0.4 0.6-0.1 1.6-0.5 2.8-1 0.3-0.3 0.6-0.6 1.1-0.9 2-1.2 3.1-2.7 3.5-4.5 0.2-0.2 0.4-0.6 0.7-1 0-0.4 0.1-0.8 0.2-1.3 0.1-0.1 0.2-0.3 0.4-0.6 0-0.4 0.1-1.4 0.3-2.9C106.8 63.9 106.8 63.1 106.8 62.7z" class="a"/><path d="M145.2 71.8c-0.4 1.4-0.8 2.9-1.2 4.3 -0.5 1.7-1.2 3.3-2.2 4.8l-26-0.2c-0.3-0.1-0.7-0.2-1.3-0.3 -0.6-0.1-1.1-0.2-1.3-0.3 0-0.5 0.2-0.9 0.6-1.1 0.8 0 1.6-0.2 2.4-0.6 1.1-0.5 1.7-1.3 2-2.3 0.1-0.4 0.1-1.1 0.1-2.2 0-1.2 0-2 0-2.4 0-0.2 0.1-1 0.3-2.4 0.1-1.1 0.2-1.9 0.2-2.5 0-7-0.1-11.7-0.4-14.1 0.1-0.1 0.2-0.2 0.4-0.5 -0.2-2-0.4-3.6-0.8-4.8 -0.2-0.6-0.8-1.1-1.8-1.7 -1-0.5-1.7-0.7-2.2-0.6 0-0.8 0.5-1.2 1.6-1.2 0.3 0 0.7 0 1.2 0.1 0.5 0.1 0.8 0.1 1 0.1h14.7c0 0.5-0.4 0.8-1.5 1.1 -0.7 0.2-1.4 0.4-2.1 0.5 -0.9 0.4-1.3 0.6-1.4 0.7 -0.6 0.4-0.9 0.8-1.1 1.2 -0.4 1.4-0.7 3.2-0.8 5.4 -0.3 3.4-0.4 5.3-0.4 5.5 0.4 1.1 0.6 2.1 0.6 3 0 0.4-0.1 1.1-0.2 1.8 -0.1 0.8-0.2 1.4-0.2 1.8v8c0.3 0.9 0.8 2.3 1.3 4.1 0.1 0.3 0.5 0.5 1.1 0.6 0.8 0.1 1.9 0.3 3.3 0.5 0.3 0.1 0.5 0.1 0.7 0 1.4-0.2 2.8-0.4 4.2-0.6 1.7-0.3 3-0.8 4-1.4 0.3-0.3 0.7-0.9 1.2-2.1 0.5-1.2 0.9-2 1.3-2.4 0.3-0.3 0.7-0.5 1.2-0.5C143.8 71.4 144.4 71.6 145.2 71.8z" class="a"/><path d="M182.6 80.4l-4.5-0.1h-2.8l-4.6 0.1c-0.2-0.4-0.3-0.8-0.1-1.1 0.9-0.1 1.3-0.3 1.3-0.6 0-0.1 0-0.2-0.1-0.3 -0.3-0.2-0.7-0.6-1.2-1.2 0-0.2-0.2-0.4-0.7-0.8 -1-1-2.4-2.2-4.2-3.7 -0.4-0.4-0.9-1-1.7-1.7 -0.5-0.3-1.1-0.8-1.8-1.4 0.3-0.1 0.5-0.1 0.4-0.1l0.7 0.2c0 0 0.3 0.1 0.7 0.2 -0.2-0.4-0.7-0.7-1.4-0.9 -0.1 0-0.2-0.2-0.4-0.5 -0.2-0.3-0.4-0.4-0.6-0.4 0 0.1 0.1 0.2 0.3 0.3 0 0.2-0.1 0.3-0.2 0.5 -0.2-0.1-0.6-0.3-1-0.5 -0.1-0.1-0.2-0.3-0.4-0.5 -0.3-0.1-0.6-0.3-1.1-0.5 -0.2-0.3-0.5-0.7-1-1.3 -0.3-0.2-0.7-0.5-1.3-1 -0.3-0.3-0.8-0.7-1.4-1.1 -0.2 0.2-0.3 0.8-0.2 1.8 0.1 0.6 0.1 1.4 0.2 2.6 0 0.7-0.1 1.6-0.1 3 0.1 0.6 0.2 1.5 0.3 2.6 0.1 0.4 0.2 0.9 0.4 1.7 0 0.3 0 0.7 0.1 1.3 0.6 1 1.4 1.6 2.5 1.8 0.4 0.1 1 0.2 1.8 0.5 0 0.5 0 0.8-0.1 0.9 -0.4 0-1 0.1-1.9 0.2h-2.6c0 0-0.3 0-0.8-0.1 -0.5-0.1-0.8-0.1-1-0.1 -0.4 0-1.1 0-2 0.1 -1 0.1-1.4 0.2-1.3 0.2h-3.7c-0.3 0.1-0.7 0.1-1.1 0 -0.5-0.1-0.7-0.4-0.7-0.7 0-0.1 0-0.2 0-0.2 0.1-0.2 0.4-0.3 0.9-0.4 0.6-0.1 1.1-0.2 1.3-0.3 0.5-0.3 1-0.8 1.4-1.5 0.2-0.3 0.3-1.1 0.4-2.4 0.1-0.9 0.2-2.2 0.4-4 -0.1-0.9-0.1-2.3-0.1-4.1 0-0.2 0.3-0.7 0.7-1.4 0 0.1-0.1 0-0.3-0.3 -0.2-0.3-0.3-0.6-0.3-1v-2.9c0-1.3 0-1.8 0-1.7 -0.2-0.8-0.2-1.9 0.1-3.2 0.1-0.4 0-0.8-0.3-1.2v-2.2c0-0.3 0-0.3 0-0.2 0.1-0.2 0.1-0.3 0.1-0.4v-4c0-0.5-0.1-1-0.3-1.7 -0.3-0.8-0.6-1.4-1-1.6 -0.6-0.3-1.5-0.5-2.9-0.7 0-0.1-0.1-0.2-0.1-0.3 0-0.5 0.4-0.8 1.3-0.7l4.7 0.3h2.3c0 0 0.2 0 0.6-0.1 0.4-0.1 0.7-0.1 1-0.1 2.3 0 3.8 0 4.3-0.1 0.1 0.2 0.2 0.4 0.2 0.6 0 0 0 0.1 0 0.3 0 0.2 0 0.3 0 0.3 -0.6 0.1-1.2 0.2-1.7 0.4 -0.8 0.3-1.3 0.7-1.8 1.4 0 0.1-0.1 0.6-0.3 1.6 -0.1 0.8-0.3 1.9-0.6 3.4 0 0.1 0 0.4 0.1 0.7 0.2 0.4 0.2 0.7 0.2 1 0 0-0.1 0.1-0.2 0.3s-0.2 0.2-0.2 0.3c0 0.3 0 0.6 0.1 1 -0.1 0.4-0.1 1-0.1 1.8 0 0 0.1 0.6 0.3 1.8 -0.1 0.6-0.1 1.4 0.1 2.5 0.1 0 0.3-0.2 0.8-0.6 0.3-0.3 0.7-0.8 1.3-1.4 1.9-2 3.3-3.4 4-4.2 0.2-0.1 0.5-0.3 0.9-0.6 1.5-1.5 2.7-2.7 3.6-3.7 0.3-0.3 0.7-0.8 1.2-1.4 0.3-0.4 0.7-1.1 1.1-1.8 0.3-0.5 0.2-1-0.2-1.5 -0.4-0.4-0.9-0.7-1.5-0.8 -0.5-0.1-1-0.1-1.5-0.2 -0.1-0.1-0.1-0.4-0.1-0.9 0.9-0.3 2.5-0.3 4.8 0 0.2 0 0.4-0.1 0.7-0.1 0.8 0.1 1.1 0.1 1.1 0.1 1.4 0 3.4-0.1 6-0.2 0 0.4 0 0.8-0.1 1.2 -1.3-0.1-2.5 0.1-3.6 0.7 -0.4 0.3-0.9 0.9-1.8 1.6 -0.1 0.1-0.3 0.2-0.6 0.4 -1.4 1.5-3.3 3.6-5.8 6.2 -0.2 0.1-0.4 0.2-0.6 0.3 -0.4 0.3-1.6 1.5-3.6 3.7 -0.2 0.3-0.5 0.7-1 1.3 -0.4 0.3-0.8 0.9-1.5 1.6 0.2 0.1 0.4 0.2 0.7 0.4 1 0.8 1.9 1.8 2.9 2.8 0 0.1 0.1 0.3 0.2 0.5 0.7 0.7 1.7 1.6 3 2.9 0.3 0.2 0.7 0.5 1.3 0.9 0.5 0.3 1.2 1.1 2.3 2.3 0.4 0.4 0.8 0.8 1.2 1.1 0.3 0.1 0.6 0.3 1.1 0.6 0.2 0.3 0.5 0.6 0.8 1.1 0.1 0.1 1.1 0.9 2.8 2.3 0.7 0.7 1.7 1.7 3 2.7 0.1 0.1 0.2 0.2 0.4 0.4 0.4 0.2 1.1 0.5 2.1 0.9 0.3 0 0.6 0 1.1 0.1C182.5 79.4 182.6 79.8 182.6 80.4z" class="a"/><path d="M200.9 46.7c-0.1 0.3-0.2 0.7-0.4 1.2l-1.8 0.4c-0.7 0.2-1.2 0.5-1.4 1 -0.2 0.2-0.4 0.6-0.6 1 0 0.1-0.3 1.3-0.8 3.4l-0.1 12.3c-0.1 0.5-0.2 0.8-0.2 0.8l0.2 0.6v4.5c-0.1 0.6-0.1 1.5 0 2.6 0.1 1.3 0.4 2.3 0.8 3.1 0.1 0.3 0.5 0.6 1 0.9 1 0.6 2 0.9 3 0.9 0 0.3-0.1 0.6-0.3 1.1h-3.4c-0.1 0-0.4 0-1-0.1s-0.9-0.1-1-0.1c-0.1 0-0.3 0-0.8 0.1s-0.7 0.1-0.8 0.1 -0.2 0-0.5-0.1 -0.5-0.1-0.6-0.1 -0.2 0-0.4 0.1 -0.3 0.1-0.4 0.1l-6.1 0.1c-0.5 0-0.8-0.2-0.8-0.6 0-0.4 0.1-0.7 0.4-0.8 0.6-0.1 1.3-0.2 1.9-0.3 0.7-0.2 1.2-0.4 1.4-0.8 0.1-0.2 0.2-0.6 0.4-1.1 0.3 0 0.7 0.1 1.3 0.2 0.2-0.8 0.3-1.3 0.3-1.6 0-0.2-0.1-0.5-0.3-0.9 0.2-0.4 0.2-0.7 0.1-1 -0.1-0.2-0.3-0.5-0.6-1 -0.3-0.4-0.4-0.6-0.4-0.7 0 0.1 0.2-0.4 0.5-1.8 0-0.2 0-0.4-0.2-0.7 0.3-0.5 0.5-0.9 0.5-1.1 0 0 0-0.7-0.1-1.9 0-0.1-0.1-0.3-0.2-0.6s-0.2-0.4-0.2-0.5c0-0.1 0.1-0.2 0.3-0.4 -0.1 0.1-0.1 0-0.1-0.3v-3.5c0-0.1 0-0.2 0.1-0.5s0.1-0.5 0.1-0.5c0 0 0-0.1-0.1-0.2s-0.1-0.2-0.1-0.2c0 0.1 0-0.4 0.1-1.3 0-0.2 0-0.7-0.1-1.6v-2.3c0-0.2-0.1-0.5-0.4-0.9 0.1-0.2 0-0.6-0.2-1.2 0-0.3-0.1-0.7-0.2-1.2 -0.2-0.2-0.4-0.4-0.6-0.8 -0.1-0.2-0.2-0.5-0.4-0.9 -0.4-0.6-0.8-1-1.1-1.2 -0.5-0.1-1.1-0.3-2-0.6 0.1-0.3 0.2-0.6 0.3-1.1h0.3c0.1 0 0.2 0 0.5 0.1 0.3 0 0.5 0.1 0.5 0.1L200.9 46.7z" class="a"/><path d="M232.6 70.8c-0.1 1-0.2 2.5-0.4 4.3 -0.2 0.5-0.5 1.2-0.9 2.1 -0.1 0.4-0.2 0.9-0.4 1.6 -0.1 0.2-0.3 0.6-0.8 1.1 -0.5 0.6-0.9 0.9-1.2 0.9h-7.5c-0.1 0-1 0-2.6-0.1s-2.5-0.1-2.6-0.1h-4.5c-0.1 0-0.7-0.1-1.8-0.2 -1.1-0.1-1.7-0.2-1.8-0.2h-4.4l-0.4-0.4c0.2-0.3 1.1-0.9 2.6-1.8 1-0.6 1.5-1.4 1.5-2.3v-9.3c0-1.5 0.2-3.5 0.7-6.1 -0.3-0.8-0.3-1.8-0.1-2.9 -0.4-0.3-0.5-0.7-0.5-1.2 0 0 0.2-0.8 0.6-2.4 0-0.1-0.1-0.4-0.3-0.8 -0.3-0.5-0.4-0.7-0.4-0.8 -0.1-0.4-0.2-1.1-0.2-1.9 0-1.2 0-1.9 0-2 -0.1-0.7-0.2-1.2-0.4-1.6 -0.3-0.6-0.8-1-1.4-1.3 -0.6-0.3-1.2-0.5-1.8-0.8 0.3-0.6 0.6-1 0.9-1 0.6 0 1.5 0 2.6 0 1.3-0.3 1.9-0.4 1.8-0.4h5.2c0.1 0 0.7 0.1 1.8 0.2 1.1 0.1 1.9 0.2 2.5 0.2 0.2 0 2.2-0.1 5.9-0.4 0.8-0.1 3 0 6.6 0.2 0.3 0.2 0.5 0.5 0.5 0.8 0 0.2-0.1 0.4-0.2 0.8 -0.1 0.3-0.2 0.6-0.2 0.7 0 0.6-0.2 2.8-0.6 6.4 -0.1 0.1-0.3 0.3-0.9 0.6 -0.1-0.2-0.5-1.2-1.1-3.1 -0.4-1.2-1.1-1.9-2.2-2 -0.4-0.1-0.9-0.2-1.3-0.3 -0.6-0.1-1.1-0.2-1.4-0.1 -0.9 0.2-2.7 0.2-5.6 0 -1.6-0.1-2.8-0.1-3.6 0.1 -0.2 0.1-0.4 0.3-0.5 0.7 0.7 2.3 0.8 4.3 0.1 6.1 0-0.1 0.1 0.4 0.1 1.5 0 0.3 0 0.8-0.1 1.7 -0.1 0.7-0.1 1.3-0.1 1.7 0 0.2 0.2 0.5 0.6 0.8h11c0.4-0.1 0.7-0.2 1-0.4 0.5-0.2 0.9-0.5 1.1-0.9 0.2-0.5 0.6-1.2 1.1-2.1 0.6 0 1 0.2 1.2 0.6 -0.1 1.1-0.2 2.5-0.2 4.3 0 1.2-0.2 2.8-0.4 5.1 -0.1 0.3-0.5 0.4-1.2 0.3 -0.3-0.5-0.7-1.1-1.3-1.8 -1.2-0.9-2.3-1.3-3.2-1.3h-4c-0.3 0-0.8 0-1.5-0.1s-1.3-0.1-1.7-0.1c-1 0-1.7 0.3-2 0.9 -0.3 0.7-0.5 1.2-0.5 1.6 0 0.4 0.1 1 0.2 2s0.2 1.7 0.2 2.3c0 0.3-0.1 0.8-0.3 1.5 -0.2 0.8-0.2 1.3-0.2 1.8 0 0.3 0 0.6 0.1 0.9 0.1 0.5 0.7 1 1.6 1.7 0.9 0.7 1.7 1 2.4 1.1 0.1 0 0.2 0.1 0.3 0.1 0.2 0.1 0.4 0.1 0.5 0.1h4.9c1.1 0 2-0.2 2.8-0.5 1-0.5 2-1.2 3-2.3 1.1-1.2 1.6-2.4 1.7-3.5C231.2 70.6 231.9 70.6 232.6 70.8z" class="a"/><path d="M275.6 44.7c-0.4 0.1-0.9 0.2-1.6 0.3 -0.7 0.2-1.3 0.7-1.8 1.4 -0.6 1.1-1 2.1-1.1 3.2 -0.3 1.8-0.4 3.3-0.4 4.4 0 0.1 0 0.9 0.1 2.5s0.1 2.5 0.1 2.6v4.7c0 0.1 0 0.3 0.1 0.6s0.1 0.6 0.1 0.8c-0.1 2.4-0.2 3.7-0.2 4 0 0.2 0 0.5 0.1 1s0.1 0.8 0.1 0.8v9c0 0.1 0 0.2 0 0.2s0 0 0 0c-1.4 0.2-2 0.4-1.8 0.4 -0.8 0-1.3-0.1-1.5-0.3 -1.3-1.2-3.3-3.4-6-6.6 -0.5-0.6-1.2-1.5-2.1-2.7 -0.8-0.8-1.9-2-3.3-3.5 -0.4-0.6-0.9-1.5-1.8-2.6 -1.8-2.1-4.2-5.3-7.5-9.4 -0.4-0.3-1-0.9-1.8-1.6 0-0.1-0.1-0.3-0.2-0.6 -0.2-0.4-0.6-0.9-1.2-1.7 -0.4 0.2-0.6 0.5-0.6 0.9 0 0 0.1 1 0.4 3 0 0.1 0 0.3-0.1 0.5 -0.1 0.2-0.1 0.4-0.1 0.5 0 0.8 0 2 0.1 3.6 0.1 1.6 0.1 2.4 0.1 2.4v4.1c0 0.1 0 1.1 0 3 0 1.9 0 2.9 0 3 0 4.1 1.5 6.2 4.4 6.5 0.1 0 0.1 0.1 0.2 0.2s0.2 0.3 0.2 0.3c0 0.4 0 0.6-0.1 0.9h-10.2c-0.1 0-0.4 0-1.1 0.1s-1 0.1-1.1 0.1h-0.5c-0.2-0.2-0.3-0.3-0.3-0.3 0-0.7 0.2-1.1 0.6-1.4 0.5-0.2 1.2-0.4 2.2-0.9 1-0.5 1.5-1.4 1.7-2.5 0.5-2.8 0.6-4.6 0.3-5.2 -0.1-0.3-0.2-0.5-0.1-0.7l0.2-0.3 -0.2-0.3c0-0.2 0-0.6 0-1.1 0-0.5 0.1-0.9 0.1-1.2 0-0.3-0.1-0.7-0.2-1.4s-0.2-1.1-0.2-1.4c0 0.3 0-0.3 0.1-1.8 0-0.1-0.1-0.3-0.3-0.6l0.1-0.1c0.1-0.1 0.1-0.3 0.1-0.6 0-0.1 0-0.1 0-0.2 -0.3-2.2-0.4-3.7-0.4-4.5v-4c-0.1-2.3-0.2-3.7-0.2-4.2 0-0.1 0-0.2 0.1-0.4s0.1-0.4 0.1-0.5c-1.5-1.6-3.4-2.3-5.6-2.1l-0.1-0.1v-1c0.2-0.3 0.7-0.4 1.6-0.4 0.1 0 0.9 0 2.4 0.1s2.3 0.1 2.4 0.1c0.1 0 0.8 0 2.2-0.1s2.1-0.1 2.2-0.1c0.5 0 0.7 0 0.8 0.1 0.3 0.1 0.8 0.7 1.7 1.9 1.6 2.3 4.1 5.7 7.3 10.2 0.7 0.8 1.7 2.1 3 3.8 -0.2 1.7 0 2.6 0.7 2.6 0.1 0 0.2-0.1 0.5-0.2s0.4-0.2 0.5-0.2c0.3 0 0.6 0.4 1 1.1 0.2 0.4 0.4 0.7 0.6 1.1 1.4 1.2 2.3 2 2.7 2.6 0.1 0.3 0.2 0.8 0.4 1.5 0.2 0.2 0.3 0.3 0.4 0.3 0.1 0 0.2 0 0.3-0.1 0.1-0.1 0.2-0.1 0.2-0.1 0.5 0.6 1.2 1.4 2.1 2.5 0.3-0.2 0.5-0.3 0.5-0.4 0-0.1 0-0.3-0.1-0.5s-0.1-0.4-0.1-0.5v-3.1c0-0.1 0-0.2 0-0.4s0-0.4 0-0.7c0.1-0.4 0.1-0.9 0.2-1.6 -0.1-0.6-0.2-1.4-0.4-2.5 0-0.2 0-0.4 0.1-0.9 0.1-0.4 0.1-0.7 0.1-0.7 0-0.1 0-0.2-0.1-0.5s-0.1-0.4-0.1-0.5c0-0.4 0-0.8 0-1.4 0-0.8 0.1-1.3 0.1-1.5 0-0.1 0-0.3-0.1-0.5s-0.1-0.4-0.2-0.5l0.1-0.8c0-0.2 0-0.5-0.1-0.9s-0.1-0.8-0.1-1c0-0.1 0-0.3 0.1-0.5 0.1-0.3 0.1-0.5 0.1-0.6 -0.1-0.8-0.3-2-0.6-3.5 -0.3-1-1.4-1.7-3.3-2 0-0.3 0-0.7-0.1-1.1 0.2-0.2 0.9-0.3 2.1-0.3l5.3 0.2c-0.1 0 0.8 0 2.6-0.1 1.1-0.1 2 0 2.6 0.2V44.7zM264.7 67.1l-0.3 0.3 -0.2-0.2 0.1-0.6C264.7 66.9 264.8 67.1 264.7 67.1z" class="a"/><path d="M182.6 92.5c-0.1 0.5-0.2 1.2-0.4 2.1 0 0-0.7 0.2-2.1 0.7 -0.9 0.3-1.5 0.8-1.7 1.7 -0.2 0.4-0.4 0.9-0.7 1.7 0 0.2-0.3 2.2-0.9 5.8l-0.1 25.7c-0.2 0.9-0.2 1.3-0.2 1.4 0 0 0.1 0.3 0.2 1.1l-0.1 7.7c-0.2 1.1-0.2 2.5 0 4.4 0.2 2.2 0.5 3.9 1 5.3 0.2 0.5 0.6 1 1.3 1.5 1.2 1 2.4 1.5 3.6 1.5 0 0.4-0.1 1.1-0.4 1.9h-4.1c-0.1 0-0.5 0-1.2-0.1s-1.1-0.1-1.2-0.1 -0.4 0-0.9 0.1 -0.9 0.1-0.9 0.1c0 0-0.3 0-0.6-0.1s-0.6-0.1-0.7-0.1c-0.1 0-0.2 0-0.5 0.1s-0.4 0.1-0.5 0.1l-7.4 0.2c-0.6 0-0.9-0.3-0.9-1 0-0.8 0.2-1.2 0.5-1.3 0.8-0.2 1.5-0.4 2.3-0.6 0.9-0.3 1.5-0.7 1.7-1.3 0.1-0.4 0.2-1 0.4-1.8 0.3 0 0.8 0.1 1.5 0.3 0.2-1.4 0.4-2.2 0.4-2.6 0-0.4-0.1-0.9-0.4-1.5 0.2-0.7 0.2-1.2 0.1-1.7 -0.1-0.3-0.3-0.9-0.6-1.7 -0.3-0.7-0.4-1.1-0.4-1.2 0 0.2 0.2-0.8 0.6-3 0.1-0.3 0-0.6-0.2-1.1 0.4-0.9 0.6-1.6 0.6-1.9 0-0.1-0.1-1.1-0.2-3.3 0-0.2-0.1-0.5-0.2-0.9 -0.2-0.5-0.2-0.7-0.2-0.8 0-0.2 0.1-0.4 0.3-0.7 -0.1 0.1-0.1-0.1-0.1-0.5v-6.1c0-0.1 0-0.4 0.1-0.9s0.1-0.8 0.1-0.9c0-0.1 0-0.2-0.1-0.4 -0.1-0.2-0.1-0.3-0.1-0.4 0-0.5 0-2.1 0.1-4.9 0-0.3 0-1.3-0.1-2.8v-6c0-0.4-0.2-0.9-0.5-1.6 0.1-0.4 0-1-0.2-2 0-0.5-0.1-1.2-0.3-2.1 -0.2-0.3-0.4-0.7-0.7-1.3 -0.1-0.3-0.3-0.8-0.5-1.5 -0.5-1-0.9-1.7-1.3-2 -0.5-0.2-1.3-0.6-2.4-1.1 0.1-0.5 0.2-1.1 0.4-1.8h0.3c0.1 0 0.3 0 0.6 0.1 0.4 0.1 0.6 0.1 0.7 0.1h13.5L182.6 92.5z" class="a"/><path d="M212.6 111.1c0.2 0.8 0.1 2.6-0.3 5.4 -0.1 1-0.7 2.1-1.7 3.5s-2 2.4-3 3c-0.9 0.6-2.2 1.1-3.9 1.3 -0.4 0.2-1 0.4-1.8 0.6 -1.5 0.1-3.5 0.2-5.9 0.2 -0.1 0-0.3 0.1-0.5 0.4 0.1 0.7 0.2 3.1 0.3 7.1 0 0.8 0.2 1.8 0.5 3 0 0.4 0.1 0.9 0.3 1.6 0.4 0.7 1 1.2 2 1.5 0.7 0.2 1.4 0.4 2.2 0.6 0 0.2 0 0.5 0 0.8 -0.6 0.2-1.1 0.4-1.7 0.4h-3c0 0-0.3 0-0.8-0.1s-0.8-0.1-1-0.1c-0.6 0-1.5 0-2.8 0.1s-1.9 0.1-1.9 0.1h-2.9c-0.3 0-0.6-0.1-1.1-0.3 0 0 0-0.1-0.1-0.3s-0.1-0.3-0.1-0.4c1-0.3 1.6-0.5 1.8-0.6 0.7-0.3 1.3-0.9 1.7-1.7 0.2-0.4 0.3-1.2 0.4-2.7 0-0.2 0.1-0.8 0.2-1.8 0.1-0.9 0.2-1.6 0.2-2v-3.6c0-0.9 0-1.8-0.1-2.7 0-1 0.3-1.9 0.7-2.6 -0.2-0.1-0.3-0.4-0.5-0.8 -0.2-1.1-0.2-2.1-0.2-3.3 0 0 0.1-0.4 0.2-1 0.1-0.5 0.1-0.9 0-1.3 -0.3-0.8-0.4-1.9-0.1-3.2 0.1-0.4 0-1.5-0.4-3.5 0-0.6-0.2-1.4-0.5-2.5 -0.4-0.5-1-0.8-1.6-1 -0.6-0.1-1.1-0.2-1.7-0.4 0-1.1 0-1.3-0.1-0.7 0-0.3 0.2-0.5 0.6-0.5 0.8 0 2-0.1 3.8-0.3 1.6-0.1 2.4-0.2 2.5-0.2h3.7c0.7 0 1.4-0.1 2.2-0.2s1.4-0.2 1.9-0.2c0.6 0 1.5 0.1 2.5 0.2 0.6 0.1 1.5 0.3 2.7 0.6 0.1 0.1 0.3 0.2 0.6 0.3 1.9 0.3 3.5 1.2 4.9 2.6C211.5 107.8 212.2 109.2 212.6 111.1zM206.3 114.4c0-0.6 0-1-0.1-1.3 -1-2.6-1.8-4.2-2.5-5 -0.9-1-1.9-1.6-3.1-1.9 -0.7-0.2-2-0.2-3.6-0.1 -0.2 0-0.4 0.1-0.8 0.3 -0.3 3.3-0.5 6-0.6 8 0.1 0.2 0.2 0.4 0.3 0.7 0 0.3-0.1 1.4-0.3 3.3 -0.1 1.3-0.1 2.5 0.1 3.8 0.1 0.1 0.1 0.1 0.2 0.2h2.8c0.3 0.1 0.7 0.1 1 0.1 1.1 0 2.2-0.4 3.3-1.1 1-0.7 1.7-1.3 1.9-1.8C205.9 118.2 206.3 116.4 206.3 114.4z" class="a"/><path d="M241.1 131c0 0.4-0.2 1.3-0.7 2.5 -0.5 1.3-0.8 2-1 2.3 -0.9 1.1-1.9 2.1-2.9 2.9 -0.6 0.4-1.3 0.8-2.2 1.1 -2.4 0.7-4.6 1.1-6.7 1.1 0 0-0.3 0-1.1-0.1 -0.7-0.1-1.2-0.1-1.6-0.1 0.1 0.2 0.1-0.2 0.1-1 -0.5-0.5-1.1-0.7-1.9-0.7 -0.3 0-0.6 0.1-0.8 0.4 0 0 0.3 0.2 0.9 0.4 -0.1 0.4-0.4 0.5-0.7 0.5 -0.4 0-1.2-0.2-2.5-0.5 -1.7-0.4-2.9-0.9-3.7-1.4 -0.2-0.1-0.4-0.9-0.6-2.3 -0.2-1.2-0.2-2.6-0.2-4.2 0-1.5 0.1-2.8 0.2-3.7 0.1 0 0.4 0 0.9-0.1 0.2 0.2 0.2 0.6 0.2 1.1 0 0.7 0 1 0 1 0.1 0.5 0.2 1.2 0.4 2.1 0 0.1 0.3 0.6 0.8 1.3 0.3 0.5 0.8 1.1 1.6 1.9 0.6 0.5 1.5 0.9 2.6 1.2 0.6 0.2 1.2 0.4 1.8 0.6 0.7 0.2 1.4 0.3 1.8 0.3 0.2 0.1 0.3 0.2 0.4 0.2 0.1 0 0.2 0 0.4-0.1s0.3-0.1 0.4-0.1c0.1 0 0.5 0.1 1.1 0.2s1 0.2 1.1 0.2 0.3-0.1 0.6-0.3c0.3-0.2 0.5-0.4 0.7-0.4 0.5-0.1 1.3-0.3 2.4-0.5 0.5-0.1 1-0.6 1.3-1.6 0.1-0.3 0.3-0.6 0.6-1.1 0-0.1 0-0.4 0.1-0.6 0-0.1 0.2-0.4 0.4-0.7s0.3-0.6 0.3-0.7c0-0.7-0.1-1.3-0.3-1.8 -0.1-0.3-0.5-1-1.2-2.1 -0.2-0.2-0.5-0.4-0.9-0.7 -1.7-1.4-3.3-2.3-4.9-2.8 -0.4-0.3-1.1-0.6-1.9-1 -1-0.4-2.5-1.3-4.7-2.6 -0.2-0.1-0.4-0.2-0.7-0.3 -0.6-0.5-1.2-1.1-1.8-1.9 -0.9-1.1-1.4-1.7-1.5-1.8 0-0.3 0-0.7-0.1-1.2 -0.1-0.2-0.3-0.5-0.5-1 0-0.4 0-1-0.1-1.7 0.1-0.2 0.2-0.3 0.2-0.4 -0.2-0.5-0.3-0.8-0.3-0.7 0 0 0.2-0.4 0.6-1.4 0.1-0.4 0.2-1 0.4-1.8 0.1-0.2 0.6-0.7 1.6-1.7 0.4 0.2 0.7 0.3 0.6 0.3 0.1-0.3 0.2-0.6 0.4-1 1.8-1.7 3.4-2.8 5-3.2 1.2-0.3 2.9-0.5 5-0.5 0.1 0 1.1 0.1 3 0.3 1.9 0.2 2.9 0.3 3 0.3 0.1 0 0.5-0.1 1.3-0.2s1.2-0.2 1.3-0.2c0.5 0 0.8 0.2 0.8 0.7l-0.4 4.8v2.5c0 0 0 0.4-0.1 1s-0.1 1.1-0.1 1.4c0 0-0.1 0-0.2 0.1 -0.1 0.1-0.2 0.1-0.3 0.1h-0.7c-0.1-0.6-0.2-1.5-0.4-2.7 -0.6-2.3-1.9-3.8-3.8-4.5 -1-0.4-2.7-0.5-5.2-0.5 -0.5 0-1.3 0.2-2.4 0.6 -1 0.3-1.9 1.2-2.8 2.5 -0.3 0.5-0.5 1-0.5 1.6 0 0.9 0.3 2 0.9 3.3 0.3 0.2 0.6 0.6 1.1 1 1.3 1.3 3.4 2.6 6 3.7 4.2 1.7 7.1 3.6 8.8 5.7 0.6 0.8 1 1.7 1.2 2.7C241 128.5 241.1 129.8 241.1 131z" class="a"/><path d="M281.7 103.6c0 0.7-0.1 1.1-0.4 1.1 -0.4 0-0.9 0.2-1.6 0.4 -0.3 0-0.7 0.1-1.3 0.3 -0.7 0.6-1.1 1.5-1.2 2.6 -0.1 0.1-0.1 0.3-0.2 0.5 -0.1 1.1-0.1 1.8-0.1 2.1 0.3 1.8 0.4 2.7 0.4 2.7v2.3c0 0.1 0 0.2-0.1 0.5s-0.1 0.4-0.1 0.5c0 0.1 0 0.4 0 0.8 0.2 1.6 0.3 3.6 0.3 6.1 0 0 0 0.1-0.1 0.2s-0.1 0.2-0.1 0.2c0 1.9 0 2.6 0.1 2.3 -0.1 1-0.3 2.6-0.6 4.6 -0.1 0.6-0.5 1.5-1 2.8s-1 2.1-1.4 2.7c-0.5 0.6-1.3 1.4-2.6 2.3 -1 0.7-2 1.4-3 2.1 -0.3-0.2-1.1-0.1-2.5 0.2 -0.3 0.2-0.7 0.4-1.3 0.6 -0.1 0-0.3 0-0.5-0.1 -0.2-0.1-0.3-0.1-0.4-0.1h-2.2c0.3 0-0.2-0.1-1.5-0.4 -0.4 0-1.1-0.1-1.9-0.2 -0.5-0.3-1.3-0.6-2.3-1 -0.3 0-0.8-0.1-1.4-0.1 -0.2-0.1-0.6-0.2-1.1-0.6 -3.5-2-5.4-5.5-5.5-10.4l-0.3-9.3c-0.1-2.6-0.4-6.4-0.8-11.4 -0.1-1.1-0.5-1.9-1.3-2.3 -0.2-0.2-1.1-0.4-2.8-0.9 -0.1-0.1-0.1-0.2-0.1-0.3 0-0.4 0.3-0.5 1-0.4 1.5 0.2 3.3 0.4 5.2 0.4h2.8c0.1 0 0.3 0 0.8-0.1 0.5-0.1 0.9-0.1 1.1-0.1 0.9 0.1 2.3 0 4.2-0.1 0.2 0.2 0.2 0.4 0.2 0.5 0 0.3-0.6 0.6-1.8 0.8 -0.1 0.1-0.3 0.2-0.5 0.4 -0.1 0.1-0.3 0.2-0.6 0.3 -0.4 0.3-0.5 0.5-0.6 0.7 -0.4 1.8-0.8 3.7-1.3 5.8 0-0.1 0.1 0.3 0.3 1 0 0-0.1 0.5-0.2 1.5 0.1 0.3 0 1.1-0.1 2.3 0-0.2 0.1 0.5 0.3 2.2 0 0.3 0 1.1-0.1 2.6 0 0.1 0.1 0.2 0.1 0.4 0 0.1-0.1 0.8-0.2 2.2 0 0.4 0 1.4 0.3 2.8 0.1 0.2 0.2 0.4 0.4 0.7 0 0.1 0.1 0.7 0.2 2 0 0.2 0 0.6 0 1.1 0.1 0.2 0.2 0.5 0.4 0.9 0.1 0.2 0 0.4 0 0.7 0.2 0.3 0.6 0.8 1 1.4 0.2 0.4 0.7 1 1.4 1.8 0.5 0.4 1.1 0.8 1.6 1.2 0.7 0.5 1.4 0.8 2 0.9 0.5 0.1 1.1 0.1 1.8 0.1h3.9c1.1 0 2.2-0.6 3.4-1.9 1.1-1.2 1.9-2.4 2.2-3.7 0.2-1.1 0.3-2.4 0.6-3.9 0.2-1 0.2-2.4 0-4.1l0.1-13.8c-0.1-1.2-0.4-2.5-0.9-4 -0.2-0.6-0.9-1.1-2.2-1.5 -0.2-0.1-0.6-0.1-1.2-0.3 -0.1-0.2-0.2-0.4-0.2-0.8 -0.1 0 0.2 0 0.9-0.1 1.5-0.2 2.9-0.1 4.2 0.1 0.2 0 0.6-0.1 1-0.1 0.7 0.1 2 0.1 3.9-0.1 0.1 0 0.2 0 0.4 0s0.4 0 0.4 0C279 103.8 280 103.7 281.7 103.6z" class="a"/><path d="M329.8 139.1c0.1 0.1 0.1 0.3 0.1 0.4 0 0.7-0.4 1-1.2 1 -0.2 0-0.3 0-0.5-0.1 -0.5-0.2-1-0.3-1.6-0.4 -0.4 0-1 0-1.7 0 -0.8 0-1.4 0-1.6 0 -2.8-0.1-4.4 0-4.8 0s-1.2 0.2-2.2 0.3c-0.9 0.1-1.4-0.1-1.6-0.5 -0.1-0.1 0-0.3 0.1-0.6s0.3-0.4 0.5-0.4c0.1 0 0.8-0.1 2.3-0.2 1.1-0.1 1.8-1.1 2.1-2.8 0-1.2 0.1-2.9 0.2-5.3 0-0.1 0-0.4-0.1-0.7s-0.1-0.5-0.1-0.7c0-1.6-0.1-3.9-0.4-6.8v-2.3c0 0-0.1-0.4-0.2-1.1s-0.3-1.2-0.3-1.4c-0.1-1.3-0.1-2.2-0.1-2.7 0 0 0.1-0.2 0.2-0.6s0.2-0.7 0.2-0.9c0-0.4-0.1-0.7-0.4-0.9 -0.5 0.3-0.8 0.9-1.1 1.8 -0.2 0.3-0.4 0.7-0.6 1.2 -0.1 0.4-0.2 0.9-0.4 1.6 -0.1 0.1-0.3 0.4-0.5 0.7 0 0.2-0.1 0.5-0.2 0.9 -0.4 0.7-0.9 1.8-1.6 3.2 0 0.3-0.1 0.7-0.2 1.2 -0.2 0.2-0.4 0.5-0.6 0.9 0 0.3-0.1 0.7-0.3 1.2 -0.4 0.6-0.8 1.5-1.5 2.8 -0.1 0.4-0.2 1-0.4 1.7 -0.1 0.1-0.2 0.3-0.4 0.5 0 0.1-0.2 0.5-0.4 1.3 -0.2 0.3-0.3 0.6-0.6 1.1 -0.1 0.3-0.2 0.7-0.4 1.3 -0.2 0.2-0.3 0.5-0.6 1 0 0-0.6 1.4-1.8 4.2 0 0.4-0.2 0.9-0.6 1.5 0 0-0.5 0-1.3 0.1 -0.5 0.1-0.9-0.1-1.2-0.4 -0.3-0.3-0.8-1.2-1.4-2.6 -0.3-0.6-0.7-1.5-1.3-2.7 -0.2-0.6-0.5-1.5-0.9-2.5 -0.1-0.1-1.1-2.2-3.2-6.2 -0.1-0.3-0.2-0.6-0.3-1.1 -1-1.8-2.3-4.7-4.2-8.7 -0.2-0.8-0.5-1.9-1.1-3.4 -0.5-1-1-1.6-1.6-1.6 -0.2 0.1-0.2 0.7-0.2 1.6 0.1 0.2 0.2 0.6 0.2 1.1 0 0.3 0 0.6 0 1.1 0 0.6 0 0.8 0 0.8v2.8l-0.8 11v2.4c0-0.2 0 0 0 0.6s0 1.5 0 2.9c0 0.4 0.1 0.8 0.3 1.4 0.5 0.8 1 1.3 1.4 1.6 0.4 0.1 1 0.3 1.8 0.6 0.3 0.2 0.4 0.4 0.3 0.8 -0.4 0.4-1.5 0.6-3.3 0.3h-2.7c-0.5 0-0.9 0-1.2 0.1 -1.3 0.1-2.6 0.2-4 0.2 -0.2-0.1-0.3-0.3-0.4-0.6 -0.1-0.3 0-0.6 0.3-0.7 0.1-0.1 0.5-0.1 1.3-0.2 0.2-0.1 0.4-0.2 0.7-0.4 0.9-0.4 1.6-1.3 1.9-2.6 0.1-0.3 0.2-1.3 0.4-3 0.1-0.3 0.2-0.6 0.4-1.1 0.1-0.7 0.2-1.2 0.2-1.4v-2.2c0-0.1 0-0.2 0.1-0.4s0.1-0.3 0.1-0.3c0-1.2 0.2-2.9 0.5-5.2 0-0.2 0.1-0.8 0.2-2 0.1-2 0.1-3.3 0.1-4 0-0.1 0-0.2 0.1-0.5s0.1-0.4 0.1-0.5v-4.1c0-0.1 0.1-0.4 0.3-0.9s0.3-0.8 0.4-1c0.1-0.4 0.1-0.8 0-1.3 -0.2-0.3-0.4-0.7-0.7-1.3 0-0.4-0.3-0.9-0.7-1.6 -0.3 0-0.6-0.1-1.1-0.2 -0.5-0.1-1.1-0.2-1.9-0.4 -0.8-0.2-1.2-0.2-1.3-0.3 -0.5-0.2-0.8-0.4-0.8-0.8 0.5-0.4 1.3-0.5 2.4-0.4 0.8 0.1 1.9 0.3 3.3 0.5 0.2 0 0.5 0 0.9-0.1 0.5-0.1 0.8-0.1 1-0.1 0.1 0 1.2 0 3.3 0.2 0.6 0 1.1 0.6 1.4 1.8 0.2 0.3 0.4 0.7 0.8 1.4 0.1 0.4 0.3 0.9 0.5 1.6 0.3 0.3 0.7 0.8 1.2 1.4 0 0.4 0.1 0.9 0.1 1.6 0.2 0.2 0.3 0.5 0.6 0.9 1.6 3.5 3 7 4.4 10.4 0.3 0.8 0.7 1.8 1 2.9s0.9 2.3 1.6 3.7c0.3 0.3 0.7 0.8 1.1 1.4 0.1 0.1 0.1 0.5 0.3 1.2 0.1 0.4 0.3 0.7 0.6 0.8 0.2 0 0.4-0.2 0.6-0.4 0.6-1.2 1.3-2.9 2.1-5.2s1.5-4.1 2.3-5.5c0.1-0.3 0.2-0.7 0.4-1.3 0.2-0.4 0.4-0.9 0.7-1.6 0-0.1 0.1-0.2 0.3-0.4s0.3-0.4 0.3-0.5c0.1-0.4 0.2-1 0.4-1.7l0.8-1.9c0.3-0.4 0.8-1.1 1.5-2.1 0.1-0.1 0.2-0.5 0.3-1.4 0-0.1 0.6-1.5 1.8-4.3 0-0.4 0.1-0.9 0.3-1.6 0.5-1.2 1.7-1.6 3.5-1.3 0.2 0.1 0.5 0.2 1 0.4 1.4 0.1 2.5 0.1 3.1 0 0.4 0 0.9 0 1.6-0.1 0.2-0.1 0.4-0.2 0.8-0.4s0.8-0.2 1.2-0.1c0.2 0.1 0.3 0.2 0.4 0.5 0.1 0.6-0.2 1-0.9 1.1 -0.6 0.1-1.1 0.2-1.7 0.2 -0.2 0.1-0.4 0.3-0.8 0.6s-0.9 0.7-1.6 1.4c0 0-0.2 0.8-0.5 2.1 -0.3 1.1-0.2 2.8 0.1 5.1 0.1 1.1 0.2 2 0.3 2.9 0 0.9 0 2.4 0.1 4.3 0-0.1 0 1-0.1 3.2 0 1.2 0 2.5 0.3 3.7 0.2 0.8 0.4 2 0.7 3.5 0.1 2.1 0.2 3.3 0.3 3.6 0.2 1.1 0.8 2 1.6 2.7 0.3 0.2 0.6 0.3 1 0.3 0.5 0 0.8 0 1 0C329.4 138.7 329.6 138.9 329.8 139.1z" class="a"/><path d="M143.9 125.4c-0.2 1.1-0.4 2.1-0.6 2.9 -0.5 1.2-0.8 2-1.1 2.4 -0.2 0.4-0.5 0.7-0.7 0.9l-0.6 0.7c-0.4 0.4-0.8 0.8-1.4 1.2l-1.1 0.7 -1.1 0.6 -1.3 0.6 -1.3 0.5c-0.9 0.3-1.8 0.7-2.9 1 -1.4 0.3-2.5 0.6-3.2 0.7 -1.1 0.2-2.3 0.4-3.5 0.6l-1.4 0.1 -0.4 0.1c-1.3 0.1-2.6 0.2-3.8 0.2h-0.6c-0.8 0-1.3 0-1.4 0l-1.9-0.1 -1.9-0.1 -1.9-0.2c-0.8 0-1.7-0.2-2.7-0.4l-0.8-0.1c-3.6-0.7-6.6-1.6-8.8-2.7l-1.2-0.6 -1-0.6c-0.8-0.4-1.4-1-2-1.7 -1-1.1-1.7-2.3-2.2-3.6 -0.2-0.6-0.4-1.2-0.5-1.8 -0.1-0.6-0.2-1.1-0.3-1.6l-0.1-1.8c0-1.1-0.1-1.7-0.1-1.8 0-0.9 0-1.9 0.1-3.2 0.1-1.1 0.3-2 0.6-2.8 0.3-1.1 0.7-2.1 1.4-3.2 0.1-0.2 0.3-0.5 0.6-0.8 0.7-0.8 1.4-1.4 1.9-1.8l1.1-0.7c0.3-0.2 0.7-0.4 1.2-0.6l1.2-0.6 1.3-0.5c0.4-0.2 0.9-0.4 1.4-0.5 1.4-0.5 2.4-0.8 3-0.9l1.2-0.3 0.5-0.1c1.2-0.3 2.4-0.5 3.5-0.6l1.8-0.2 1.9-0.1 1.4-0.1h0.6 2 0.3c0.6 0 1.1 0 1.7 0.1l1.8 0.1 1.9 0.2 1.7 0.2c2.6 0.5 4.3 0.8 5 1 1.4 0.4 2.4 0.7 2.9 0.9l1.4 0.5 1.2 0.6c0.4 0.2 0.8 0.4 1.2 0.6l1 0.6c0.2 0.1 0.6 0.4 1 0.7 1.2 1 2.1 2.2 2.7 3.5 0.6 1.3 1 3 1.2 5C144.2 121 144.2 123.2 143.9 125.4zM142.9 125.1c0.1-0.6 0.1-1.3 0.2-2.1 0 0 0 0.1 0 0.1l-0.1-0.2c0 0.1 0-0.6 0.1-1.9 -0.7 2.4-1.3 4.1-1.8 5l0.6-2.2c-1.1 1.6-1.8 2.9-2.2 3.8 0 0-0.1 0-0.1-0.1l0.1-0.2c0.2-0.1 0.4-0.4 0.5-0.9 0.1-0.5 0.1-0.8 0-1 -0.3 0.2-0.7 0.7-1.4 1.6 -0.5 3.1-2.1 5.7-4.8 7.6l-0.2 0.1c0 0-0.1 0.1-0.1 0.1 1.6-1.2 2.9-2.9 4-5.1 0.5-1.2 0.8-2.1 0.8-2.9l-0.2-0.1c-0.5 0.2-1 1-1.5 2.4 0.1-0.1 0.3-0.2 0.4-0.3h0.1c-0.2 0.2-0.4 0.4-0.6 0.6 -0.4 0.2-1.1 0.4-2.1 0.8 -1 0.3-1.7 0.6-2.2 0.9 -0.8 1-1.3 1.8-1.6 2.4 -1.2 1.3-2.4 2.4-3.8 3l-0.2 0.1h-0.2c1.8-0.9 3.4-2.4 4.8-4.5 0.7-1.1 1.1-1.9 1.1-2.4 0-0.2 0-0.4-0.1-0.5 -0.6 0-1 0.2-1.2 0.5 0 0.1-0.1 0.4-0.4 0.9 -0.4 0.6-0.8 1-1.2 1.2 0 0-0.1-0.1-0.1-0.1l-0.1-0.2c0.1-0.1 0.3-0.1 0.4-0.1 0.5-0.4 0.8-0.9 0.9-1.5 -0.1-0.1-0.3-0.2-0.5-0.2 -0.7 0-1.7 0.8-2.9 2.3l-0.1 0.1 -1 0.1c0.9-0.8 1.2-1.5 0.9-1.9 -0.4 0-1.2 0.6-2.2 1.7 -0.2 0.2-0.5 0.4-0.9 0.6l-0.3-0.1c0-0.1 0-0.2 0.1-0.3 0.6 0 1-0.2 1.3-0.8 0.1-0.2 0.1-0.4 0.1-0.6 0-0.2-0.1-0.3-0.3-0.3 -0.3 0-0.9 0.1-1.7 0.4 -0.3 0.9-1 1.5-1.9 1.8 -0.1 0-0.2-0.1-0.2-0.1l-0.1-0.3c0.2 0 0.4 0 0.6 0.1 0.8-0.5 1.1-1 1-1.5 -0.1 0-0.3-0.1-0.5-0.1 -0.5 0-1 0.1-1.7 0.4s-1 0.4-1 0.5c-1.4 2.7-3.6 4.4-6.4 5.1l-0.2 0.1 -0.2-0.1c1.7-0.5 3.3-1.6 4.9-3.3 1.1-1.2 1.5-2 1.2-2.7 -1.1-0.2-1.8 0-2.2 0.6 -0.4 0.6-0.7 1.2-1 1.6 -0.9 1.2-2 2.1-3.5 2.8 -0.6 0.3-1.2 0.5-1.8 0.6l-0.2 0.1 -0.1-0.1c2.2-0.6 4-2.1 5.5-4.3l0.1-0.2c-0.8 0.3-1.6 0.5-2.3 0.6 -0.5 0-0.9-0.2-1.1-0.5 -0.6 0.1-1.2 0.2-1.8 0.2 -0.4 0-0.7-0.2-0.9-0.4 -0.3-0.7 0-1.2 1.2-1.5 -0.6-0.1-1.1-0.1-1.3 0.1 -0.1 0.6-0.9 1.1-2.2 1.5 0.7 0 1.2 0 1.5 0.3 0 0.6-0.5 1.2-1.6 1.8 -1.1 0.6-2.2 0.9-3.5 0.9h-0.5l-0.1-0.1c1.5-0.1 2.8-0.5 3.8-1.1 0.8-0.5 1.2-0.9 1.3-1.4 -0.4-0.2-1.2-0.3-2.4-0.1h-0.1c0 0-0.1-0.1-0.1-0.1 2.2-0.5 3.2-1.2 3.1-1.9 -1.1-0.4-2.1-0.2-3.1 0.6 -0.2 0.1-0.4 0.2-0.7 0.2 -0.1-0.1-0.2-0.2-0.2-0.2v-0.2c0.4 0.1 0.6 0.1 0.8 0 0.3-0.2 0.5-0.5 0.5-0.9 0-0.3-0.1-0.5-0.5-0.6 -0.4 0-0.8 0.1-1.4 0.6 -0.5 0.4-1 0.6-1.3 0.6 0 0-0.1-0.2-0.2-0.4 0 0 0-0.1 0.1-0.1 0.1 0 0.1 0.1 0.1 0.1 0.2 0 0.5-0.1 0.7-0.4 0.2-0.3 0.3-0.5 0.3-0.7 -0.3-0.4-0.7-0.6-1.1-0.6 -0.6 0-1.2 0.4-1.7 1.1l-0.1 0.1 -0.6-0.3c0.4-0.4 0.6-0.8 0.6-1.1 0-0.4-0.4-0.7-1.2-0.9 -1 2-1.8 3.2-2.4 3.7 -0.3 0.1-0.5 0.2-0.6 0.3h-0.1c0.7-1 1.3-1.7 1.7-2.2 0.2-0.4 0.3-0.8 0.3-1 -0.3 0-0.6 0-0.9-0.1 -0.3-0.1-0.5-0.3-0.6-0.7l-0.1-0.1c0-0.6 0.1-1 0.4-1.2 0.2 0 0.5 0 0.6 0.1l0.1 0.1 -0.1 0.2 -0.2-0.2c-0.1 0-0.2 0.1-0.2 0.1 -0.2 0.1-0.3 0.4-0.3 0.6 0.1 0.6 0.3 0.9 0.6 0.9s1-0.6 2.2-1.8c1.2-1.2 2.1-1.9 2.8-1.9h0.2l0.1 0.1c-1.2 0.1-2.1 0.7-2.7 1.7 -0.2 0.4-0.4 0.8-0.6 1.4 0.9 0.2 1.3 0.5 1.4 0.8 0 0.1 0 0.3-0.1 0.4 0.6-0.1 1.2-0.1 1.9-0.1 0.4 0 0.7 0.2 0.9 0.6 0.5 0 1 0 1.5 0 0.3 0 0.6 0.2 0.7 0.5 0 0.2-0.1 0.4-0.1 0.6 0.7-0.3 1.4-0.4 2.2-0.4 0.3 0 0.6 0.1 0.9 0.3 0.4 0 1.3 0 2.7 0.1l0.5 0.1c2.4 0.2 4.1 0.3 5.1 0.1v0.1l-0.1 0.2c0.5-0.1 1-0.1 1.7-0.1h0.4c0.2 0.2 0.3 0.4 0.2 0.7 0.8-0.3 1.6-0.6 2.4-0.8 0.5-0.2 0.9-0.1 1.2 0.3 0.6-0.2 1.2-0.5 1.9-0.6 0.3-0.1 0.6 0 0.8 0.1 1-0.3 1.7-0.5 2.1-0.4l0.1 0.2c0 0.2 0 0.4 0 0.5 0.8-0.5 1.5-1 2.2-1.3 0.4-0.1 0.7-0.1 0.9 0 0.5-0.2 1-0.5 1.7-0.6l0.4 0.1c0 0.2 0 0.4 0 0.6 0.6-0.5 1.2-0.9 1.8-1.4l0.4-0.2c0.3 0.1 0.8 0 1.4-0.6l0.2-0.1c0.2-0.1 0.5-0.1 0.6-0.1 0.3-0.2 0.6-0.5 1-0.7l0.4 0.1c0 0.2 0 0.4 0 0.6 0.3-0.5 0.7-1.1 1.2-1.6l0.1-0.2h0.3l0.1 0.2c0.6-1.7 1.2-3.3 1.7-4.8l0.1-0.1 0.1 0.3c0 0.3 0 0.6-0.1 0.9 -0.1 0-0.2 0-0.2 0 0-0.3 0.1-0.6 0.1-0.8l0.1-0.1c0 0-0.1 0-0.1-0.1 -0.3 1.4-0.6 2.4-0.6 3.2 0.7-0.8 1.2-1.6 1.3-2.4 0-0.3 0.1-0.5 0.1-0.6v-0.1c0-0.2 0-0.4 0-0.5 -0.1-2.5-0.5-4.7-1.3-6.3 -0.8-1.7-2.2-3.1-4.3-4.3 -0.7-0.4-1.5-0.8-2.3-1.2 -1-0.4-2.3-0.9-3.7-1.3l-0.4-0.1c-2.1-0.6-4.9-1-8.4-1.4 -1-0.1-2.2-0.1-3.7-0.1 -1.5 0-2.8 0-3.8 0.1 -1.6 0.1-2.8 0.2-3.7 0.3 -1.7 0.3-2.9 0.5-3.4 0.6 -1.1 0.2-1.6 0.4-1.7 0.4l-0.8 0.2 -1 0.3c-1 0.3-1.8 0.6-2.4 0.8 -0.7 0.3-1.5 0.7-2.5 1.2 -1 0.5-1.7 1-2.2 1.3 -0.5 0.3-1 0.8-1.6 1.5 -0.6 0.7-1.1 1.5-1.5 2.6 -0.4 1-0.7 2.3-0.9 3.9 -0.1 1.1-0.1 2.1-0.1 3.1 0 0.7 0 1.3 0 1.8 0 0.5 0.1 1.1 0.1 1.7s0.2 1.1 0.3 1.7c0.2 0.8 0.3 1.3 0.4 1.6 0.2 0.8 0.6 1.5 1 2 0.8 1.2 1.7 2 2.7 2.6 1 0.6 1.7 1 2.2 1.3 1.2 0.6 2.6 1.2 4 1.6 1.4 0.5 3 0.8 4.6 1.1 1.7 0.3 3.4 0.5 5.1 0.6 0.9 0 2.1 0.1 3.7 0.1 -0.2 0 0.4 0 1.9 0 1.1 0 2.4-0.1 3.7-0.2 1-0.1 1.6-0.2 1.8-0.2 1.7-0.2 2.9-0.4 3.4-0.5 1.8-0.4 2.8-0.7 3.2-0.8 1.5-0.4 2.4-0.7 2.8-0.9 0.6-0.2 1.1-0.4 1.3-0.5 0.8-0.4 1.6-0.8 2.2-1.2 1.2-0.8 2.1-1.6 2.8-2.4 0.7-0.8 1.2-1.8 1.6-2.9C142.6 126.7 142.9 125.7 142.9 125.1zM94.4 124.4c0.4 1.1 0.9 1.9 1.7 2.3 -1-0.2-1.6-0.8-1.8-1.9 -0.3-1.1-0.5-1.7-0.6-1.9C93.8 122.8 94 123.3 94.4 124.4zM96.1 126.5c-1-0.3-1.5-1.4-1.4-3.3 0-1.2-0.1-2.1-0.6-2.6 0.7 0.3 1.1 1.3 1 2.8C95 125.1 95.4 126.1 96.1 126.5zM95.1 115.5c-0.4-3.2 2.3-5.8 8.3-7.8 0.2-0.1 0.5-0.2 0.9-0.3l0.9-0.3c0.3-0.1 0.6-0.2 1-0.3 3.3-0.8 6.9-1.3 10.8-1.4 4.6-0.1 9.2 0.4 13.9 1.6 6.6 1.6 10.1 4.1 10.5 7.4 0.4 3.1-2.4 5.7-8.2 7.7 -4.2 1.4-8.8 2.1-13.8 2.2 -6.1 0.1-11.5-0.6-16.1-2.2C98.2 120.4 95.4 118.1 95.1 115.5zM97.1 118.7c2.3 2.1 5.8 3.6 10.7 4.5 3.8 0.8 7.7 1.1 11.7 1 5.2-0.1 9.7-0.8 13.7-2.2 5.8-2 8.5-4.5 8.1-7.6 -0.4-3.3-3.9-5.7-10.5-7.3 -4.7-1.2-9.3-1.7-13.8-1.6 -3.6 0.1-7.1 0.5-10.2 1.2 -0.2 0-0.5 0.1-0.7 0.1l-0.8 0.3c-0.7 0.2-1.4 0.4-2 0.6 -0.1 0-0.3 0.1-0.6 0.2 -0.2 0.1-0.5 0.2-0.7 0.3 -0.2 0.1-0.4 0.2-0.6 0.3 -0.2 0.1-0.3 0.1-0.4 0.1 -4 1.9-6 4-5.8 6.5C95.2 116.4 95.9 117.5 97.1 118.7zM97 116c0-0.1 0-0.2-0.1-0.3 0-0.1 0-0.2 0-0.3l-0.1-0.4 0.1-0.4 0.1-0.4v-0.1l0.1-0.3 0.1-0.3 0.1-0.1 0.1-0.3 0.1-0.2 0.1-0.1c0 0 0-0.1 0.1-0.2l0.3-0.4 0.1-0.2h0.1l0.2-0.2 0.1-0.2h0.1l0.1-0.2 0.2-0.1 0.3-0.2 0.2-0.1 0.3-0.2h0.1l0.1-0.1 0.3-0.2 0.6-0.4 0.2-0.1c0 0 0.1 0 0.3-0.1l0.9-0.4 1-0.4 0.4-0.1 0.6-0.1 1.2-0.4h0.1c0.4-0.1 0.6-0.2 0.6-0.2l0.9-0.2c0.3-0.1 0.6-0.2 0.9-0.3s0.6-0.1 0.9-0.2l0.9-0.1 0.9-0.1 1-0.1 1-0.1 1-0.1 1.1-0.1 1-0.1h1.1c7.2-0.2 13.1 0.8 17.8 3.2 0.2 0.1 0.3 0.2 0.4 0.2 1 0.5 1.8 1.1 2.4 1.7 1.2 1 1.8 2.1 1.9 3.2v0.4 0.1c0 0.7-0.2 1.4-0.6 2.2l-0.2 0.3c-2 2-4.3 3.5-7 4.3 -3.6 1.2-7.7 1.9-12.4 2 -5.5 0.1-10.4-0.6-14.7-2C100.2 120.2 97.6 118.3 97 116zM97.1 114.9v0.1c0 0.2 0 0.4 0 0.4 0.1 0.6 0.4 1.2 0.8 1.9 0.1 0.1 0.2 0.2 0.4 0.3 0.3-0.4 0.6-0.6 0.9-0.6 0.2 0 0.3 0.2 0.2 0.6 0 0.2 0 0.4-0.1 0.6 0.1 0 0.3 0.1 0.4 0.2 0.2-0.8 0.5-1.3 0.8-1.5 0 0.2 0 0.3-0.1 0.3 -0.3 0.5-0.5 0.9-0.5 1.3 0 0 0.1 0.1 0.1 0.1 0.3 0 0.7-0.4 1.3-1.2 0.5-2.3 1.9-4.7 4.2-7.2h0.1c-1.7 2.5-2.8 4.3-3.3 5.3 -0.5 1.1-0.7 1.8-0.6 2.2 0.4-0.1 0.8-0.3 1-0.6v-0.1c0.1-0.3 0.4-0.8 0.8-1.4 -0.3 0.2-0.6 0.4-0.9 0.6 0-0.1 0.1-0.2 0.2-0.4 0.3-0.2 0.6-0.4 0.9-0.5 0.7-0.2 1.2-0.4 1.5-0.5 0.8-1.2 1.4-2 1.7-2.7 0.8-1.1 1.8-2.1 2.9-3h0.2c-2.1 2.3-3.4 4-4 5 -0.6 1-0.9 1.7-0.7 2.1 0.6-0.1 1-0.3 1.2-0.4 0-0.1 0-0.2 0-0.3 1.6-2.5 3.5-4.8 5.8-6.8l0.3 0.1c-1.5 1.2-3 2.9-4.5 5 0.3 0 0.5 0 0.7 0.1 0.2 0.3 0.4 0.5 0.5 0.8 0.1 0.2 0.2 0.3 0.3 0.4 0.4 0 0.6 0 0.7-0.1 0.5-0.8 0.9-1.4 1.2-1.9 0.9-1.2 2-2.3 3.3-3.3 0.6-0.4 1.2-0.8 1.8-1.2l0.2 0.1c-2.3 1.5-4.1 3.3-5.4 5.5 0.8-0.4 1.6-0.7 2.3-0.9 0.4 0 0.6 0.1 0.8 0.4 0 0.2-0.2 0.6-0.9 1.1 0.2 0 0.6 0 1-0.1 0 0 0.1 0 0.1 0 0 0-0.1 0.1-0.2 0.1 -0.4 0.1-0.8 0.2-1.2 0.2 -1.8 0.2-2.9 0.3-3.2 0.4 -0.1 0-0.3 0.1-0.4 0.1 0.1-0.1 0.3-0.2 0.4-0.4 -0.3 0.1-0.6 0.2-0.9 0.2 -0.1 0-0.3-0.2-0.4-0.4 -0.5 0.3-1 0.6-1.5 0.8 -1.4 0.5-2.3 0.8-2.4 0.9 -0.1-0.1-0.2-0.3-0.1-0.5 -0.4 0.3-1 0.7-1.6 1.2 -0.2 0-0.3 0-0.4-0.1 -0.3 0.2-0.8 0.5-1.4 0.9 -0.1-0.1-0.1-0.3-0.1-0.5 -0.3 0.3-0.6 0.7-1.1 1.2 0.8 0.4 1.6 0.7 2.5 1.1 0.2 0 0.4 0.1 0.6 0.2 1 0.3 2.1 0.6 3.3 0.9 3.2-0.9 6.6-1.3 10.4-1.4 4.7-0.1 8.9 0.4 12.7 1.4 2.6-0.6 4.8-1.4 6.6-2.4 -0.3 0-0.6 0-0.8-0.1 -0.3-0.1-0.4-0.2-0.5-0.4 -0.5-0.1-0.8-0.3-1.1-0.4 -1 0.7-1.7 1-2.2 0.9 -0.4-0.1-0.6-0.4-0.6-0.6 0.1-0.2 0.3-0.2 0.7-0.1 0.2 0 0.3 0.1 0.4 0.3 0 0.1 0 0.2 0 0.2 -0.1 0.1-0.3 0.1-0.5 0.1 -0.1 0-0.2-0.1-0.3-0.1 0 0 0-0.1 0.1-0.1 0 0 0 0.1 0 0.1 0.2 0.3 0.4 0.3 0.4-0.1 -0.2-0.1-0.4-0.2-0.6-0.2 -0.1 0-0.1 0.1-0.1 0.2 0 0.3 0.2 0.4 0.7 0.3 0.6 0 1.1-0.3 1.7-0.8 -0.1-0.1-0.1-0.2-0.1-0.4 0-0.1 0-0.2 0-0.4 -0.4 0.1-0.9 0.1-1.5 0.1 -0.4 0-0.7-0.2-0.8-0.6 0-0.3 0.1-0.6 0.6-0.8 0.2-0.1 0.4-0.2 0.5-0.2 0.1 0 0.2 0 0.2 0 0 0.1 0.1 0.2 0.1 0.3 0 0-0.2 0-0.4-0.1 -0.2 0.1-0.3 0.2-0.5 0.4 -0.1 0.1-0.2 0.3-0.2 0.4 0 0.5 0.7 0.6 2 0.4 0-0.2 0.2-0.4 0.4-0.5l0.1-0.1 0.6 0.2c-0.4 0.2-0.6 0.5-0.6 0.8s0.3 0.5 0.9 0.7c0.1-0.3 0.3-0.6 0.6-0.8 -0.1 0-0.3-0.1-0.4-0.1h-0.1l-0.1-0.1c0.2 0 0.4 0 0.6 0.1 0.5 0.3 1.1 0.7 1.7 1.2 0.4-0.3 0.7-0.6 1.1-0.8 0.3-0.5 0.6-1 0.7-1.4 0-0.3 0.1-0.6 0.1-0.9v-0.1 -0.4c-0.2-2.9-3.3-5.1-9.4-6.6 -4.5-1.1-8.7-1.6-12.8-1.4l-1.1 0.1h-1l-1.1 0.1 -1 0.1 -1.3 0.1 -0.6 0.1 -0.9 0.1 -0.9 0.2 -0.9 0.1c-0.4 0.1-0.6 0.2-0.8 0.2l-1.2 0.3h-0.1l-0.5 0.2 -1.6 0.5 -0.1 0.1c-0.7 0.3-0.8 0.3-0.4 0.1l-1.2 0.5h-0.1c-0.1 0-0.2 0.1-0.3 0.1l-0.3 0.1c-0.1 0-0.2 0.1-0.3 0.1l-0.3 0.1c-0.1 0.1-0.2 0.2-0.3 0.2l-0.3 0.1 -0.3 0.2c0 0-0.1 0-0.2 0.1h-0.1c0 0.1-0.1 0.2-0.2 0.2l-0.1 0.1 -0.4 0.3 -0.1 0.1 -0.1 0.1 -0.2 0.2 -0.1 0.1 -0.4 0.3 -0.1 0.2 -0.1 0.1 -0.1 0.1v0.1l-0.1 0.1c0 0.1-0.1 0.2-0.1 0.2l-0.1 0.2 -0.1 0.2 -0.1 0.2c0 0.1-0.1 0.2-0.1 0.2l-0.1 0.2 -0.1 0.1 -0.1 0.4v0.2 0.1V114.9zM97.7 124.9c0.1 0.1 0.1 0.3 0.1 0.4v0.1h-0.1c0-0.2 0-0.3-0.1-0.4C97.5 124.9 97.6 124.8 97.7 124.9zM98.1 125.3c-0.1 0.1-0.1 0.1-0.2 0.1 0.1-0.3 0.1-0.6 0.1-0.6 0.2 0 0.3 0.1 0.3 0.2C98.2 125.1 98.1 125.2 98.1 125.3zM98.6 125.5l-0.1 0.1c-0.1 0-0.3 0-0.4 0.1l-0.1-0.1c0.1-0.1 0.3-0.2 0.4-0.2C98.5 125.4 98.6 125.4 98.6 125.5zM99 118c0-0.1 0.1-0.3 0.1-0.4 0-0.3 0-0.4-0.1-0.4 -0.2 0-0.4 0.1-0.6 0.4C98.6 117.8 98.8 117.9 99 118zM102.6 117.8c0.7-0.3 1.5-0.6 2.4-0.9l-0.1 0.2c-0.9 0.3-1.7 0.6-2.4 0.9L102.6 117.8zM104.8 115.8c0.1-0.3 0.2-0.5 0.3-0.8l-0.9 0.3 -0.6 0.2c-0.1 0.1-0.2 0.3-0.4 0.5 -0.3 0.4-0.4 0.6-0.3 0.8 0.1 0.1 0.2 0.1 0.3 0.1C104.3 116.4 104.8 116 104.8 115.8zM103.5 117.8c0 0 0.1-0.1 0.1-0.1v0.2c0 0.1-0.1 0.2-0.1 0.2 -0.1 0.1-0.2 0.1-0.2-0.1L103.5 117.8zM107.5 115.5c0.5-0.2 0.9-0.4 1.3-0.6 -0.2-0.4-0.5-0.7-0.8-0.9 -0.5 0.7-0.8 1.2-0.9 1.4C107.2 115.4 107.3 115.5 107.5 115.5zM108.3 128.8v0.1h-0.1c0-0.2-0.2-0.3-0.4-0.4 0-0.1 0.2-0.1 0.4-0.1C108.3 128.6 108.3 128.7 108.3 128.8zM108.5 128.9c0 0-0.1 0-0.1 0 0.1-0.3 0.2-0.5 0.2-0.6 0.3 0 0.5 0 0.5 0.1C108.9 128.5 108.7 128.7 108.5 128.9zM128 121.6c-3.4-0.8-7-1.1-10.9-1 -3.1 0-6 0.4-8.6 1 3.4 0.7 7 1 10.9 0.9C122.4 122.5 125.3 122.2 128 121.6zM109.5 128.7c0 0-0.1 0.1-0.1 0.1 -0.2 0-0.5 0-0.6 0.1h-0.1c0.2-0.1 0.4-0.3 0.6-0.4C109.5 128.6 109.5 128.7 109.5 128.7zM112.9 130.5c-1-0.1-1.7-0.2-2.2-0.2 -0.4 0.2-0.7 0.5-0.9 0.6 -0.3 0.4-0.2 0.8 0.4 1 0.3 0.1 0.9 0 1.6-0.1C111.7 131.3 112.1 130.9 112.9 130.5zM113.2 114.7c0.6-0.3 0.9-0.7 0.9-1 -0.2-0.2-0.4-0.3-0.5-0.3 -0.5 0-1.2 0.3-2.1 0.7 -0.2 0.2-0.3 0.3-0.4 0.4l-0.3 0.4C111.5 114.9 112.3 114.8 113.2 114.7zM112.4 131.7c0.1 0.4 0.6 0.6 1.4 0.4 0.8-0.2 1.4-0.3 1.7-0.4 0.1-0.2 0.2-0.4 0.3-0.5l0.3-0.5c-1.2 0-2.1-0.1-2.7-0.1C112.7 130.9 112.4 131.2 112.4 131.7zM117 114.3c1.3-1.8 2.9-3.3 4.8-4.5 0.5-0.4 1.1-0.7 1.7-1.1l0.2 0.1c-2.1 1.2-3.6 2.4-4.7 3.7 -0.3 0.4-0.6 0.7-0.7 0.9 0.8-0.3 1.5-0.4 2.2-0.4 0.3 0 0.6 0.1 0.7 0.4v0.1c0.1 0.4-0.2 0.8-0.8 1 -0.3 0.1-0.6 0.1-0.9 0.1 -0.2-0.1-0.3-0.2-0.2-0.3 0 0 0.2 0 0.4 0.1 0.1 0 0.3 0 0.7-0.1 0.2-0.1 0.3-0.4 0.3-0.7 -0.3-0.2-0.7-0.4-1.2-0.4 -0.8 0-1.4 0.4-2 1.2 -1.4 2.1-2.9 3.5-4.5 4.2l-0.1-0.1c1.2-0.7 2.5-2 4-4.1l-1.7 0.4c-0.3 0-0.4-0.1-0.4-0.3 0.1-0.5 0.5-1 1.1-1.4l0.8-0.1c-0.8 0.4-1.1 0.8-1.1 1.4C115.6 114.4 116.1 114.4 117 114.3zM115.1 115.6c0 0-0.1 0-0.1-0.1l0.3-0.3h0.1v0.2C115.2 115.5 115.1 115.6 115.1 115.6zM118.1 115.1h0.2v0.2c-0.3 0.2-0.4 0.2-0.4 0L118.1 115.1zM122.5 113.2c1.2 0.1 2.9 0.3 4.9 0.6l0.8 0.1c-0.6 0.3-0.9 0.6-0.9 0.9 0 0.3 0.5 0.5 1.4 0.5 2.4-0.3 3.6-0.8 3.5-1.4 0-0.6-0.6-0.9-1.5-0.9 -0.6 0-1.2 0.3-1.6 0.8 0.2 0.1 0.2 0.2 0.1 0.2l-0.5-0.2c0.7-0.9 1.6-1.2 2.8-0.9 0.8 0.3 1.2 0.7 1.2 1.3 -0.1 0.3-0.7 0.6-1.7 0.9 0.3 0.1 0.4 0.3 0.4 0.5 0 0.8-1.9 1.5-5.8 1.9l-0.1-0.1c3.5-0.6 5.3-1.2 5.3-1.9 0-0.1 0-0.3-0.1-0.4 -0.8 0.1-1.5 0.2-2 0.3 -0.8 0-1.3 0-1.7-0.1 -1.4 0.9-2.4 1.3-3 1.2 -0.5-0.1-0.7-0.3-0.5-0.6 0.2-0.2 0.6-0.3 1-0.2 0.2 0 0.3 0.1 0.4 0.1 0.1 0.1 0.1 0.2 0 0.3 -0.1 0.1-0.4 0.2-0.8 0.1 -0.1 0-0.2-0.1-0.2-0.1l0.2-0.1v0.1c0 0 0.1 0.1 0.3 0.1 0.2 0 0.3-0.1 0.3-0.2 -0.2-0.3-0.5-0.4-0.9-0.1 0 0.1-0.1 0.2-0.1 0.2 0 0.2 0.2 0.3 0.5 0.3 0.8 0 1.7-0.4 2.7-1.2 0-0.1-0.1-0.2-0.1-0.4 0-0.1 0-0.2 0.1-0.3 -0.7 0.1-1.5 0.3-2.4 0.4 -0.3 0-0.6-0.2-0.7-0.4 -0.5 0.1-1.2 0.2-1.9 0.2 -0.3 0-0.5-0.2-0.5-0.4 0.5-0.5 0.9-0.9 1.2-1.1 -0.3 0-0.6 0-0.9 0.1v-0.1C121.8 113.2 122.1 113.2 122.5 113.2zM122.8 113.4c-0.6 0.1-0.9 0.5-0.9 0.9 0 0.3 0.6 0.4 1.8 0.2 0.1-0.3 0.4-0.6 1-0.9C123.7 113.4 123 113.4 122.8 113.4zM125 113.7c-0.2 0.1-0.3 0.2-0.4 0.2 -0.3 0.3-0.5 0.5-0.4 0.6 0.1 0.1 0.3 0.2 0.4 0.3 0.3 0.1 1 0 2.2-0.2 0-0.2 0.2-0.4 0.4-0.6C126.3 113.8 125.5 113.7 125 113.7zM135.3 128.5v-0.1c-0.1-0.1-0.3-0.2-0.4-0.2 -0.5 0.2-1.2 0.7-1.9 1.3 -0.2 0.7-0.3 1.1-0.4 1.2l1.3-0.4c0.4-0.1 0.7-0.2 0.7-0.3C134.9 129.5 135.2 129 135.3 128.5zM134.8 129.9c0.9-0.3 1.4-0.5 1.6-0.6 0.6-0.5 0.8-1.1 0.6-1.8 0-0.1-0.1-0.2-0.3-0.1 -0.4 0.2-0.7 0.5-1.1 0.9C135.3 128.9 135 129.5 134.8 129.9zM136.9 117.8c-0.3-0.2-0.6-0.5-1-0.7 -0.1 0.1-0.2 0.2-0.2 0.2 -0.3 0.2-0.4 0.5-0.2 0.7 0.1 0.2 0.4 0.3 0.9 0.4C136.5 118.2 136.6 118 136.9 117.8zM136.6 118.4c0.2-0.1 0.5-0.2 0.6-0.4 0 0-0.1-0.1-0.2-0.1C136.8 118.1 136.7 118.3 136.6 118.4zM139.6 124.7l-0.1 0.1c0-0.1-0.1-0.2-0.2-0.1 0-0.1 0-0.2 0.1-0.3C139.6 124.4 139.6 124.5 139.6 124.7zM140.1 123.8c-0.1 0.1-0.2 0.4-0.2 0.8l-0.1 0.1c0-0.3 0.1-0.6 0.2-0.8 0.1-0.2 0.1-0.3 0.1-0.2C140 123.7 140 123.8 140.1 123.8zM140.1 124c0.1-0.1 0.1-0.1 0.2-0.1 0 0 0 0.1 0 0.1 -0.1 0.1-0.3 0.3-0.4 0.5h-0.1C140 124.3 140 124.1 140.1 124zM141.2 126.5v0.1c0 0.1-0.1 0.4-0.1 0.6l0.3 0.1c0.5-0.3 0.9-0.9 1-1.8 0.2-1.2 0.3-1.8 0.4-2 0.1 0.9-0.1 1.9-0.5 2.8 -0.5 1-0.9 1.4-1.4 1.3C140.8 127.7 140.9 127.3 141.2 126.5zM141.2 126.5c0-0.2 0.1-0.4 0.1-0.6C141.2 126.3 141.2 126.5 141.2 126.5zM142.5 120.7c-0.1 0.2-0.1 0.4-0.1 0.7 0-0.1 0.1-0.3 0.1-0.5C142.5 120.9 142.5 120.8 142.5 120.7zM143.1 120.5c0 0.1 0 0.4 0 0.9 0 0.5 0 0.9 0 1.2C143.2 121.9 143.2 121.2 143.1 120.5z" class="b"/><path d="M359 181c0 3.3-2.7 6-6 6H6c-3.3 0-6-2.7-6-6V6c0-3.3 2.7-6 6-6h347c3.3 0 6 2.7 6 6V181zM355 6c0-1.1-0.9-2-2-2H6C4.9 4 4 4.9 4 6v175c0 1.1 0.9 2 2 2h347c1.1 0 2-0.9 2-2V6z" class="b"/><path d="M352 180H7V7h345V180zM8 179h343V8H8V179z" class="a"/></svg>