<?xml version="1.0" encoding="utf-8"?>
<!-- Generator: Adobe Illustrator 15.0.0, SVG Export Plug-In . SVG Version: 6.00 Build 0)  -->
<!DOCTYPE svg PUBLIC "-//W3C//DTD SVG 1.1//EN" "http://www.w3.org/Graphics/SVG/1.1/DTD/svg11.dtd">
<svg version="1.1" id="Layer_1" xmlns="http://www.w3.org/2000/svg" xmlns:xlink="http://www.w3.org/1999/xlink" x="0px" y="0px"
	 width="191.072px" height="230.002px" viewBox="-0.001 0 191.072 230.002" enable-background="new -0.001 0 191.072 230.002"
	 xml:space="preserve">
<g opacity="0.15">
	<path d="M95.388,0c0.814,1.463,1.064,3.49,1.484,5.349c1.695,0.781,4.511,0.442,5.646,1.783c-2.104-0.023-3.297,0.863-5.35,0.892
		c-0.679,1.698-1.099,3.656-1.485,5.646c-0.812-1.467-1.23-3.325-1.485-5.349c-1.794-0.583-3.935-0.82-5.646-1.485
		c1.53-0.748,3.702-0.854,5.349-1.486C94.581,3.75,94.938,1.829,95.388,0z"/>
	<path d="M91.821,2.972c0.433,0.637,2.196,0.925,1.486,1.783C92.492,4.48,92.065,3.817,91.821,2.972z"/>
	<path d="M98.953,2.972c0.636,0.464-0.559,1.601-1.188,1.783C96.914,3.816,98.896,3.909,98.953,2.972z"/>
	<path d="M97.468,8.915c1.355-0.365,0.938,1.042,1.783,1.188C98.786,10.739,97.65,9.545,97.468,8.915z"/>
	<path d="M50.517,15.452c1.281,0.996,1.135,3.422,1.782,5.052c1.759,0.62,3.787,0.967,5.646,1.485
		c-1.44,0.838-3.782,0.774-5.349,1.486c-0.914,1.363-1.164,3.392-1.485,5.349c-1.114-1.264-1.133-3.622-1.783-5.349
		c-1.871-0.407-3.588-0.969-5.646-1.188c1.363-0.915,3.393-1.165,5.35-1.486C49.945,19.438,50.195,17.409,50.517,15.452z"/>
	<path d="M139.961,15.452c1.146,1.232,1.164,3.591,1.783,5.349c2.118,0.16,3.777,0.779,5.646,1.188
		c-1.723,0.656-3.814,0.94-5.646,1.486c-0.646,1.631-0.839,3.718-1.485,5.349c-0.646-1.632-1.128-3.429-1.485-5.349
		c-1.871-0.407-3.588-0.969-5.646-1.188c1.273-1.005,3.453-1.104,5.35-1.486C139.251,19.299,139.57,17.339,139.961,15.452z"/>
	<path d="M136.396,18.721c0.393-0.613,2.435,0.701,1.484,1.486C137.098,20,137.253,18.854,136.396,18.721z"/>
	<path d="M95.091,20.207c0.69,2.379,0.101,6.04,0.298,8.914C93.963,26.789,93.376,22.587,95.091,20.207z"/>
	<path d="M95.685,20.207c2.005,2.055,1.391,6.5,0,8.914C95.685,26.149,95.685,23.179,95.685,20.207z"/>
	<path d="M98.062,31.499c-2.9-1.746-0.325-4.998-0.595-8.32c2.486,1.853-0.254,4.159-0.297,6.834c0.603-1.28,1.732-2.03,1.485-4.16
		C100.932,27.471,97.742,29.126,98.062,31.499z"/>
	<path d="M91.228,28.23c0.547,1.533,1.61,2.548,1.484,4.754C91.766,31.889,90.431,30.144,91.228,28.23z"/>
	<path d="M99.548,28.23c1.451,1.577-0.552,3.187-0.892,4.754C97.646,31.271,99.383,29.756,99.548,28.23z"/>
	<path d="M95.091,30.013c1.132,3.494-3.494,6.731-0.298,9.807C91.314,39.389,92.909,31.629,95.091,30.013z"/>
	<path d="M96.279,40.116c2.622-3.575-0.674-5.882-0.595-10.104C98.078,31.557,99.899,38.542,96.279,40.116z"/>
	<path d="M92.713,38.333c-2.398-0.77-2.094-4.245-2.08-7.429C92.34,32.367,92.34,35.537,92.713,38.333z"/>
	<path d="M100.142,30.904c0.682,2.566,0.497,6.834-1.782,7.429C98.69,35.594,98.758,32.591,100.142,30.904z"/>
	<path d="M55.865,39.225c4.7-0.539,3.551,4.771,5.646,6.835C58.18,46.418,55.668,43.386,55.865,39.225z"/>
	<path d="M67.455,40.413c2.506,1.95,3.497,6.356,0.892,8.915C67.223,46.55,64.634,43.06,67.455,40.413z"/>
	<path d="M123.023,40.413c3.842,1.628,0.152,6.773,0,8.618C120.032,48.283,120.999,42.414,123.023,40.413z"/>
	<path d="M104.6,42.791c-3.808,3.291-13.219,2.755-17.83,0.594c1.359-1.824,6.014-2.802,8.618-1.485
		C98.371,40.37,102.047,42.044,104.6,42.791z"/>
	<path d="M65.375,48.733c0.134,2.91-3.175,4.946-7.727,4.161C57.636,48.92,62.426,49.747,65.375,48.733z"/>
	<path d="M125.4,48.733c3.039,0.923,7.633,0.292,8.022,3.863c-1.096,0.688-3.463,0.104-5.052,0.298
		C127.018,51.871,125.852,50.66,125.4,48.733z"/>
	<path d="M20.504,52.3c1.032,1.345,1.063,3.692,1.783,5.349c1.649,0.529,3.418,0.94,5.35,1.188c-0.948,1.23-3.263,1.098-5.053,1.486
		c-0.957,1.519-1.175,3.777-1.783,5.646c-0.679-1.599-1.035-3.52-1.484-5.349c-1.935-0.345-3.419-1.138-5.646-1.188
		c1.141-1.04,3.219-1.141,5.053-1.486C20.014,56.763,20.078,54.35,20.504,52.3z"/>
	<path d="M169.975,52.597c1.522,0.952,0.954,3.998,2.08,5.349c2.1,0.08,3.644,0.715,5.349,1.189
		c-1.554,0.526-3.184,0.977-5.052,1.188c-1.294,1.183-1.357,3.596-1.783,5.646c-1.209-1.168-0.968-3.786-1.783-5.349
		c-1.498-0.879-4.375-0.379-5.349-1.783c1.984-0.193,3.711-0.647,5.349-1.188C169.265,56.048,169.796,54.499,169.975,52.597z"/>
	<path d="M48.733,81.719c-2.868,1.48-6.887,2.131-8.914-0.595C42.641,80.039,47.327,77.938,48.733,81.719z"/>
	<path d="M151.253,80.827c-1.781,2.861-6.093,2.624-8.914,0.892C143.748,77.767,147.935,80.358,151.253,80.827z"/>
	<path d="M6.835,97.765c0.812,1.468,1.23,3.326,1.485,5.349c1.695,0.781,4.511,0.442,5.646,1.783
		c-2.101,0.079-3.645,0.714-5.35,1.188c-0.679,1.6-1.036,3.521-1.485,5.35c-0.814-1.463-1.064-3.491-1.485-5.35
		c-1.686-0.791-4.455-0.497-5.646-1.782c2.101-0.08,3.646-0.715,5.35-1.189C6.164,101.651,6.414,99.623,6.835,97.765z"/>
	<path d="M183.94,97.765c0.707,1.571,1.131,3.426,1.484,5.349c1.935,0.345,3.42,1.139,5.646,1.189
		c-1.179,1.099-3.426,1.13-5.349,1.485c-0.615,1.762-1.196,3.559-1.486,5.646c-1.181-1.396-0.83-4.32-2.08-5.646
		c-1.976-0.006-2.982-0.979-5.052-0.892c0.961-1.218,3.315-1.042,5.052-1.485C183.136,101.913,183.37,99.671,183.94,97.765z"/>
	<path d="M3.269,100.736c0.521,0.669,1.692,0.685,1.782,1.783C3.882,102.501,3.613,101.581,3.269,100.736z"/>
	<path d="M187.507,100.736c0.538,0.463-0.499,1.861-1.485,1.783C185.927,101.336,187.395,101.715,187.507,100.736z"/>
	<path d="M39.225,101.925c-1.216,2.7-3.599,5.643-8.023,4.16C33.574,104.543,34.604,100.249,39.225,101.925z"/>
	<path d="M46.356,101.628c1.977,1.227,2.734,7.976-0.893,8.915C45.783,107.923,43.027,103.328,46.356,101.628z"/>
	<path d="M144.121,101.628c3.815,1.265,1.579,5.54,1.188,8.915C142.075,108.87,142.556,104.732,144.121,101.628z"/>
	<path d="M159.871,105.788c-3.708,2.222-7.773-1.393-7.727-3.863C156.591,100.183,157.045,104.928,159.871,105.788z"/>
	<path d="M4.16,106.68c0.198,0,0.396,0,0.595,0c-0.055,0.253,0.115,0.28,0.297,0.297c-0.206,0.783-1.353,0.629-1.485,1.486
		C2.579,107.834,4.458,107.6,4.16,106.68z"/>
	<path d="M186.021,106.68c1.17,0.019,1.438,0.938,1.783,1.783C187.283,107.794,186.111,107.778,186.021,106.68z"/>
	<path d="M32.688,111.137c2.723,1.438,8.034,0.287,7.726,4.755C36.342,115.803,32.994,114.991,32.688,111.137z"/>
	<path d="M158.088,111.137c0.304,3.079-3.2,4.919-7.132,4.755C149.698,111.858,155.586,112.4,158.088,111.137z"/>
	<path d="M35.659,118.564c-1.505,2.656-2.916,5.404-8.022,4.459C30.066,121.441,30.863,116.811,35.659,118.564z"/>
	<path d="M155.711,118.27c0.99,0,1.98,0,2.972,0c1.851,1.121,2.595,3.349,4.458,4.457
		C158.846,124.424,155.726,120.855,155.711,118.27z"/>
	<path d="M44.871,131.344c-0.854,3.404-2.302,6.217-6.835,5.943C40.108,135.25,40.454,130.063,44.871,131.344z"/>
	<path d="M153.036,136.989c-4.144,1.17-6.005-2.513-7.132-5.349C150.165,129.354,150.695,135.432,153.036,136.989z"/>
	<path d="M51.705,134.611c-1.088,3.173-2.359,6.158-6.834,5.943C46.786,138.361,47.17,133.213,51.705,134.611z"/>
	<path d="M139.664,134.314c4.355-0.392,4.977,4.531,6.24,6.24C141.688,140.791,139.551,137.425,139.664,134.314z"/>
	<path d="M93.308,8.915c0.001,1.091-1.041,1.139-1.486,1.782C91.532,10.484,92.456,8.972,93.308,8.915z"/>
	<path d="M46.951,18.424c0.239-0.316,1.813,0.547,1.782,1.485C47.643,19.911,47.595,18.869,46.951,18.424z"/>
	<path d="M54.38,18.127c0.614,0.443-0.824,1.334-0.892,2.08C51.883,19.439,54.221,18.94,54.38,18.127z"/>
	<path d="M143.824,18.127c0.316,0.239-0.547,1.813-1.485,1.782C142.22,18.701,143.604,18.995,143.824,18.127z"/>
	<path d="M93.308,23.179c0.038,2.545,1.723,4.666,0.892,7.132c-0.274-1.708-1.187-2.776-1.486-4.458
		c-1.129,2.127,1.526,3.025,0.893,5.646C91.262,29.218,91.394,25.803,93.308,23.179z"/>
	<path d="M48.733,24.069c0.002,1.091-1.04,1.14-1.485,1.783C46.958,25.639,47.882,24.127,48.733,24.069z"/>
	<path d="M52.894,24.069c1.013-0.021,1.106,0.874,1.485,1.486C55.119,25.967,52.647,25.081,52.894,24.069z"/>
	<path d="M138.178,24.069c0.118,1.208-1.265,0.915-1.485,1.783C136.234,25.472,137.272,24.072,138.178,24.069z"/>
	<path d="M142.339,24.069c1.185-0.094,0.806,1.375,1.782,1.486C143.853,25.9,142.147,25.169,142.339,24.069z"/>
	<path d="M96.576,37.739c-0.783-0.09-0.975,0.411-0.892,1.188c-0.342,0.979-0.481-2.237-1.188-0.892
		c-0.58-0.539,0.283-1.839-0.297-2.377c0.561-0.362,1.315,0.082,1.188-1.486c0.519-0.584,0.042,2.515,1.484,1.188
		c-0.18,0.707-0.399,1.709,0,2.378C96.816,38.076,96.575,37.904,96.576,37.739z"/>
	<path d="M135.207,39.225c-0.168,3.992-1.781,6.54-5.35,7.132C130.887,44.412,130.532,38.514,135.207,39.225z"/>
	<path d="M98.953,86.176c3.773-1.226,7.863,1.12,7.132,6.24c-1.208-1.448-1.501-2.911-3.564-2.972
		c-4.316-0.126-4.464,8.102-2.675,11.887c2.91-2.156,5.021-5.202,8.319-7.132c4.049-2.367,12.241-2.807,9.212-10.698
		c-2.364-1.842-6.906-0.607-8.022,1.486c-0.039-3.914,5.946-7.094,9.807-3.863c5.547-10.168-10.589-19.836-11.887-28.527
		c-0.138-0.924-0.206-2.108,0-2.972c1.088-4.54,11.55-5.298,9.212,1.783c-0.848-5.308-7.284-3.314-5.349,2.08
		c1.394,3.885,5.273,7.187,8.022,11.292c3.37,5.032,5.859,11.314,4.755,19.315c4.238-1.388,11.994-10.299,10.4-18.721
		c-0.875-4.621-5.985-4.694-8.618-1.189c0.043-5.921,10.504-8.514,11.292-1.485c3.729-3.378,12.619-1.646,10.698,4.755
		c-1.313-1.587-2.017-3.396-4.16-3.566c-3.923-0.31-4.828,3.872-5.646,8.32c-0.804,4.37-2.491,7.803-4.457,9.51
		c1.795,0.78,4.218,0.934,4.754,2.971c-11.391-1.427-17.141,7.777-25.258,11.59c1.77,1.545,3.119,5.864,0.893,8.023
		c-0.988-10.321-14.202-0.918-12.48,7.132c6.033-0.126,17.923-2.676,21.692-7.132c2.182-2.581,1.995-7.479-2.973-6.24
		c-0.279-1.952,4.801-3.119,6.537-1.486c2.869-3.275,9.201-8.727,16.345-8.617c7.775,0.119,12.743,10.755,2.08,10.994
		c3.684-0.622,4.625-6.737,0.297-7.726c-11.211-2.56-15.419,14.285-21.396,17.532c9.804-2.531,13.571,14.725,21.692,7.133
		c-0.186-0.808,0.377-2.358-0.298-2.676c1.68-0.387,3.589,3.362,2.081,5.35c5.065-0.9,9.84,8.752,4.754,10.104
		c-2.324,0.618-3.37-0.82-5.35-1.188c7.367-0.02,5.057-6.428-2.08-6.834c-6.23-0.356-11.408-2.689-13.669-5.351
		c-0.196,7.445,2.765,13.261,10.104,12.185c-6.795,5.343-12.93-3.104-13.669-9.51c-1.617,1.518-3.023,3.228-6.24,2.377
		c4.517-0.731,4.432-7.012,0-8.022c-6.641-1.515-20.1,3.149-21.099,9.212c6.508-2.413,13.98-0.877,18.722,3.863
		c3.86,3.859,6.932,12.586,13.074,7.132c-1.123,5.589-11.956,3.641-13.074-1.485c-0.966,1.412-1.456,3.299-4.16,2.973
		c-0.508-0.946,1.807-2.367,1.782-4.459c-0.053-4.602-7.857-6.998-12.48-5.052c-7.117,3-6.923,14.099-6.537,22.584
		c0.576,12.681,0,24.661,0.595,37.739c0.623,13.695,5.813,19.717,16.344,24.068c5.848,2.418,14.859,3.773,12.184,12.185
		c-1.378-3.079-1.598-7.317-6.537-6.834c1.243,7.03-7.19,7.073-4.458,13.669c-1.11,0.018-2.479-2.646-2.377-4.457
		c0.065-1.165,2.655-3.576,2.973-5.35c0.779-4.363-2.742-7.576-6.24-6.537c-3.58,1.063-1.821,8.172,0.297,10.104
		c-1.195,0.592-2.427-1.33-3.269-2.08c-2.136,2.67-1.007,8.061,0.892,10.104c-9.261-0.438,2.146-18.854-8.022-19.019
		c3.541,4.742-3.318,11.785,0.297,17.531c-5.239-2.615-0.504-14.17-4.754-17.234c-3.075,1.193-1.059,6.222-1.486,10.4
		c-0.331,3.238-1.61,4.656-2.674,6.834c-0.241-2.166,1.118-3.561,0.892-5.943c-0.374-3.932-4.41-8.092-0.595-11.588
		c-11.012-0.023,1.362,18.203-8.617,19.314c2.026-2.283,3.258-7.307,1.188-10.4c-0.534,0.069-1.813,1.943-2.973,2.377
		c0.906-1.931,4.575-11.444-2.08-10.399c-1.572,0.247-4.424,2.024-4.457,5.349c-0.033,3.368,6.032,7.422,1.188,11.293
		c2.001-6.765-6.271-7.095-4.458-13.67c-4.438-1.267-6.151,2.762-6.537,6.537c-3.563-7.689,5.525-9.646,10.995-11.886
		c9.042-3.701,15.979-8.938,16.938-21.396c1.091-14.144,0.868-34.799,0.893-47.546c0.01-5.476-1.083-12.317-5.35-15.155
		c-6.891-4.582-18.47,3.35-11.589,8.916c-2.601,0.223-3.862-0.894-4.16-2.973c-1.777,4.352-11.335,7.721-13.67,1.485
		c6.256,5.38,10.019-3.884,13.67-7.429c4.177-4.056,11.161-6.433,18.126-3.27c0.156-5.307-12.202-11.039-20.504-9.51
		c-4.045,0.746-5.783,6.886-0.297,7.727c-2.636,1.271-5.052-0.27-6.24-2.08c-1.13,6.639-6.809,14.67-13.967,9.807
		c7.021,0.638,10.499-4.723,10.4-12.184c-2.178,1.041-5.133,4.026-10.104,4.754c-3.887,0.569-11.553-0.115-10.4,5.053
		c0.423,1.896,2.366,2.119,4.755,1.783c-2.426,1.953-7.04,2.166-7.727-0.893c-0.847-3.771,2.938-7.389,7.132-7.43
		c-1.227-2.116-0.329-5.396,1.782-5.942c-1.355,3.646,1.993,5.978,5.646,4.755c4.456-1.49,8.828-10.94,15.749-8.915
		c-3.445-2.155-8.117-11.821-12.48-15.155c-2.875-2.197-12.62-4.71-11.589,2.08c0.257,1.692,1.352,2.119,2.972,2.972
		c-2.679,1.089-4.945-0.796-5.942-2.377c0.705-14.408,21.093-6.508,24.366,0.297c2.267-1.523,5.725-0.563,7.132,1.188
		c-3.761-0.772-5.877,2.182-3.862,5.646c3.158,5.434,15.31,7.315,21.989,8.32c0.624-6.617-3.409-12.598-10.4-11.589
		c-1.121,0.471-1.902,2.841-1.484,3.862c-2.326-0.051-1.83-6.929,0.594-7.429c-7.93-4.213-14.01-13.249-25.556-11.887
		c0.963-1.514,2.474-2.479,4.755-2.674c-0.41-1.834-2.782-3.241-3.863-6.835c-1.277-4.245-0.454-10.943-5.349-11.292
		c-2.651-0.188-3.614,1.648-4.755,3.566c-2.082-6.366,6.854-8.16,10.399-4.755c0.899-6.403,10.843-4.94,11.292,0.892
		c-1.168,0.266-3.501-3.593-6.537-1.486c-1.435,0.996-1.986,3.031-2.08,4.755c-0.421,7.787,6.587,15.953,10.697,17.532
		c-1.149-8.664,1.032-14.755,5.646-21.098c2.342-3.22,8.602-8.56,7.429-13.075c-0.753-2.898-5.896-3.042-5.35,1.485
		c-4.014-6.323,8.111-7.657,8.915-1.188c0.512,4.119-3.373,8.625-6.239,12.184c-4.362,5.414-7.624,10.285-6.241,18.424
		c1.841,0.237,2.58-1.371,4.16-1.485c3.163-0.23,5.292,2.356,6.241,5.051c-1.646-0.779-2.21-1.852-3.863-2.08
		c-7.121-0.979-5.438,7.703-1.486,9.212c3.564,1.361,7.685,2.395,10.698,5.35c1.49,1.461,1.939,3.366,3.564,4.16
		c2.939-2.686,1.902-11.887-2.079-11.887c-1.669,0-2.646,0.958-3.27,2.675c-1.292-4.202,2.138-7.38,6.537-5.943
		c2.048-6.731-5.988-14.336-7.726-19.909c-2.101-6.734,7.5-9.845,9.509-3.27c-1.44-1.862-4.976-1.596-5.646,0.892
		c-1.399,5.186,5.907,12.495,7.132,15.452c2.024-2.054,8.833-9.681,8.022-14.857c-0.403-2.579-3.856-3.96-5.646-1.188
		c0.204-5.559,11.048-5.667,9.51,2.674C106.107,70.684,97.445,78.211,98.953,86.176z"/>
	<path d="M16.938,55.568c0.214-0.29,1.727,0.634,1.783,1.486C17.63,57.056,17.582,56.014,16.938,55.568z"/>
	<path d="M24.367,55.271c0.315,0.239-0.547,1.813-1.486,1.783C22.763,55.847,24.146,56.14,24.367,55.271z"/>
	<path d="M166.408,55.568c0.239-0.316,1.813,0.547,1.783,1.486C166.983,57.173,167.276,55.789,166.408,55.568z"/>
	<path d="M173.837,55.271c0.458,0.381-0.579,1.78-1.484,1.783C172.233,55.847,173.616,56.14,173.837,55.271z"/>
	<path d="M18.721,61.215c0.117,1.208-1.266,0.914-1.485,1.782C16.89,62.729,17.621,61.023,18.721,61.215z"/>
	<path d="M22.881,61.215c1.041-0.051,0.937,1.045,1.486,1.485C25.106,63.111,22.635,62.226,22.881,61.215z"/>
	<path d="M168.191,61.215c0.021,1.012-0.874,1.106-1.486,1.485C166.295,63.439,167.18,60.968,168.191,61.215z"/>
	<path d="M172.352,61.215c1.091-0.002,1.139,1.04,1.782,1.485C173.895,63.017,172.32,62.153,172.352,61.215z"/>
	<path d="M10.697,100.736c0.29,0.214-0.634,1.727-1.485,1.783C9.211,101.429,10.252,101.381,10.697,100.736z"/>
	<path d="M180.077,101.033c0.382-0.457,1.78,0.58,1.783,1.486C180.677,102.613,181.056,101.145,180.077,101.033z"/>
	<path d="M9.212,106.68c1.185-0.094,0.806,1.374,1.783,1.485C10.613,108.623,9.215,107.585,9.212,106.68z"/>
	<path d="M181.86,106.68c0.001,1.091-1.04,1.139-1.485,1.783C180.059,108.223,180.921,106.648,181.86,106.68z"/>
	<path d="M93.604,40.413c-2.9,0.071-4.84,1.104-7.132,1.783c-0.417-5.093,0.54-10.647-1.188-15.749
		c2.693,2.358,4.27,5.835,3.863,11.292C90.627,37.952,93.285,38.206,93.604,40.413z M90.336,40.116c1.071,0.051,1.071-1.537,0-1.485
		C90.336,39.126,90.336,39.621,90.336,40.116z"/>
	<path d="M101.925,38.036c-0.305-5.356,0.758-9.347,3.863-11.292c-1.903,4.811-0.729,10.537-1.188,15.452
		c-2.402-0.569-4.107-1.835-7.133-1.783C97.899,38.517,100,37.555,101.925,38.036z M100.439,40.116
		c0.229-0.203,0.772-1.771-0.298-1.485C99.671,39.075,99.923,39.846,100.439,40.116z"/>
</g>
</svg>
